<?xml version="1.0" standalone="no"?>
<!DOCTYPE svg PUBLIC "-//W3C//DTD SVG 20010904//EN"
 "http://www.w3.org/TR/2001/REC-SVG-20010904/DTD/svg10.dtd">
<svg version="1.0" xmlns="http://www.w3.org/2000/svg"
 width="922.000000pt" height="922.000000pt" viewBox="0 0 922.000000 922.000000"
 preserveAspectRatio="xMidYMid meet">
<metadata>
Created by potrace 1.11, written by Peter Selinger 2001-2013
</metadata>
<g transform="translate(0.000000,922.000000) scale(0.100000,-0.100000)"
fill="#000000" stroke="none">
<path d="M7395 7178 c-122 -8 -142 -12 -208 -42 -62 -27 -109 -73 -138 -134
-17 -38 -20 -60 -17 -121 4 -86 26 -140 73 -183 31 -28 117 -74 157 -83 180
-40 291 -69 326 -87 55 -26 83 -70 79 -120 -9 -89 -87 -128 -245 -124 -121 4
-183 37 -226 123 -9 18 -22 30 -29 28 -12 -4 -57 -12 -117 -21 -63 -8 -71 -14
-64 -37 36 -116 106 -184 239 -233 40 -14 52 -16 190 -19 163 -5 255 13 337
66 90 58 129 139 123 257 -3 76 -21 123 -62 168 -57 61 -126 89 -358 144 -150
35 -201 62 -210 112 -18 101 35 147 179 154 108 4 175 -29 207 -103 7 -17 16
-30 19 -28 3 2 32 6 65 10 33 3 69 7 80 10 11 2 28 4 39 4 22 1 17 30 -16 99
-39 83 -118 132 -242 152 -38 6 -72 12 -75 13 -3 2 -51 -1 -106 -5z"/>
<path d="M8398 7185 c-2 -2 -26 -6 -53 -9 -143 -16 -248 -78 -291 -170 -32
-69 -29 -182 7 -246 38 -69 143 -136 241 -154 30 -5 152 -34 203 -47 114 -31
155 -64 162 -131 9 -93 -57 -140 -201 -144 -143 -5 -216 27 -258 111 -11 22
-21 41 -22 42 -1 1 -20 -2 -43 -7 -23 -6 -63 -12 -89 -15 -73 -9 -75 -12 -52
-73 21 -57 90 -135 143 -163 70 -38 189 -63 290 -61 43 0 170 12 185 17 3 1
26 8 53 15 26 8 47 18 47 22 0 4 6 8 14 8 8 0 35 19 60 41 125 114 113 344
-22 434 -38 25 -150 69 -202 79 -14 2 -47 10 -75 16 -27 6 -61 14 -75 16 -58
11 -120 37 -144 61 -14 14 -26 28 -27 32 0 3 -2 17 -5 30 -7 36 14 87 42 105
13 9 24 14 24 11 0 -3 10 0 23 7 31 17 154 18 202 1 49 -17 92 -57 100 -94 5
-22 11 -27 28 -23 12 2 45 7 72 10 28 4 57 8 65 10 8 1 23 3 34 3 15 1 17 6
12 32 -12 63 -75 159 -104 159 -7 0 -12 4 -12 8 0 7 -85 42 -120 49 -8 2 -51
6 -95 9 -44 3 -88 7 -97 8 -9 2 -18 2 -20 1z"/>
<path d="M5955 7161 c-3 -2 -5 -235 -5 -517 l0 -512 263 3 c235 2 269 4 327
23 71 23 140 63 186 108 36 35 94 118 94 134 0 6 5 21 12 33 7 12 13 27 15 32
55 199 19 417 -89 539 -61 70 -181 132 -288 152 -42 7 -508 12 -515 5z m475
-176 c144 -38 221 -145 223 -308 1 -140 -28 -225 -104 -299 -62 -60 -117 -76
-269 -77 l-115 0 2 307 c1 169 2 326 2 348 l1 42 107 -1 c59 0 128 -5 153 -12z"/>
<path d="M3535 6942 c-2 -2 -25 -5 -52 -7 -70 -6 -147 -15 -174 -21 -13 -2
-42 -7 -64 -10 -22 -3 -58 -10 -80 -16 -22 -6 -49 -12 -60 -13 -28 -4 -128
-31 -210 -57 -124 -39 -144 -65 -114 -146 34 -92 55 -98 194 -53 134 43 311
80 460 98 101 12 455 10 550 -3 162 -22 356 -65 430 -94 11 -4 61 -23 110 -40
50 -18 99 -39 110 -46 11 -8 26 -14 33 -14 8 0 27 -9 43 -21 16 -11 29 -18 29
-15 0 3 28 -11 63 -31 34 -20 72 -41 84 -47 13 -6 23 -14 23 -18 0 -5 5 -8 11
-8 9 0 78 -44 114 -72 172 -136 213 -170 231 -189 11 -13 32 -33 45 -45 44
-37 161 -168 210 -234 27 -36 53 -71 59 -77 62 -74 273 -459 285 -521 2 -12 8
-29 13 -39 11 -21 42 -110 70 -203 18 -58 24 -82 38 -142 2 -10 6 -28 9 -40 3
-13 7 -34 10 -48 2 -14 6 -38 9 -55 5 -28 20 -140 26 -195 11 -99 0 -496 -15
-550 -2 -8 -7 -35 -10 -60 -3 -25 -10 -58 -15 -75 -5 -16 -11 -44 -13 -62 -3
-17 -8 -36 -11 -41 -3 -4 -7 -19 -9 -33 -11 -55 -62 -202 -105 -299 -8 -19
-15 -37 -15 -40 0 -7 -96 -189 -116 -220 -32 -50 -41 -65 -48 -80 -4 -8 -11
-19 -15 -25 -4 -5 -38 -50 -74 -99 -36 -49 -80 -105 -97 -125 -71 -82 -253
-254 -330 -313 -45 -34 -84 -65 -87 -68 -3 -3 -30 -21 -60 -40 -30 -19 -57
-37 -60 -40 -12 -12 -94 -55 -240 -126 -85 -41 -175 -85 -200 -97 -55 -27 -64
-54 -39 -122 20 -54 47 -83 76 -80 82 6 615 282 631 326 2 5 8 9 13 9 6 0 15
5 22 10 7 6 50 40 97 77 146 115 321 297 463 483 56 73 194 303 217 360 7 19
19 42 27 51 7 8 13 22 13 30 0 8 4 19 9 24 12 14 68 163 101 271 73 237 108
466 111 729 2 96 -8 285 -17 328 -2 12 -6 39 -9 62 -8 49 -32 183 -38 210 -29
114 -38 150 -56 210 -12 38 -21 71 -21 71 0 1 12 5 28 9 15 3 41 13 57 20 17
7 66 26 110 40 44 15 94 33 110 40 17 7 64 25 105 40 78 28 228 82 390 141 90
33 237 87 435 159 50 18 101 37 115 42 14 5 59 22 100 37 108 39 139 92 97
168 -35 64 -95 67 -227 11 -8 -3 -17 -7 -20 -8 -3 -1 -12 -5 -20 -8 -8 -3
-139 -51 -290 -106 -151 -54 -376 -136 -500 -181 -124 -46 -265 -97 -315 -115
-49 -18 -126 -47 -170 -63 l-81 -30 -59 122 c-51 105 -187 342 -205 356 -4 3
-20 25 -37 50 -17 25 -41 55 -52 67 -12 12 -21 26 -21 30 -1 17 -231 256 -326
339 -33 28 -99 81 -149 117 -49 37 -95 71 -102 77 -7 5 -15 10 -17 10 -3 0
-29 15 -58 33 -149 95 -440 227 -578 263 -8 2 -31 8 -50 13 -56 16 -155 40
-184 45 -143 27 -176 31 -298 42 -76 7 -367 11 -373 6z"/>
<path d="M3457 6423 c-3 -2 -34 -7 -69 -10 -69 -5 -113 -10 -113 -13 0 -1 -7
-3 -15 -5 -8 -1 -42 -8 -75 -14 -325 -65 -706 -260 -935 -477 -25 -24 -54 -51
-66 -61 -18 -16 -76 -79 -144 -159 -30 -34 -143 -192 -153 -214 -4 -8 -21 -37
-37 -65 -76 -129 -157 -324 -196 -475 -31 -119 -40 -163 -60 -300 -14 -95 -19
-344 -9 -445 3 -27 7 -74 10 -102 6 -59 39 -229 55 -283 5 -19 6 -37 2 -41 -6
-6 -339 -132 -377 -143 -5 -2 -17 -6 -25 -9 -8 -4 -33 -13 -55 -20 -87 -30
-411 -148 -430 -157 -11 -4 -135 -50 -275 -100 -331 -119 -348 -127 -365 -161
-29 -55 -14 -113 36 -142 41 -23 54 -22 151 13 46 17 88 32 93 33 6 1 57 20
115 41 58 21 130 47 160 58 30 11 64 24 75 28 11 5 110 41 220 80 231 83 213
76 290 105 33 12 119 43 190 69 72 26 158 58 193 72 71 28 92 30 92 10 0 -38
220 -425 259 -456 3 -3 20 -23 36 -45 40 -54 228 -242 290 -291 28 -21 52 -41
55 -44 3 -3 32 -23 65 -45 33 -22 62 -43 65 -46 3 -3 12 -9 20 -12 8 -4 31
-17 50 -29 66 -40 225 -116 320 -151 184 -68 369 -109 573 -126 100 -8 324 -7
397 3 25 3 65 8 90 11 70 8 198 35 275 56 445 126 819 381 1088 744 57 77 167
255 167 271 0 4 7 15 16 25 8 9 17 23 18 31 1 7 12 36 25 63 44 97 105 280
125 376 3 13 7 35 10 49 3 13 8 40 11 60 3 20 7 45 9 56 29 149 26 499 -5 664
-6 30 -11 62 -11 70 -1 53 -89 341 -135 440 -124 269 -238 436 -428 625 -44
45 -102 99 -130 120 -27 22 -56 46 -63 52 -24 23 -209 143 -220 143 -6 0 -12
3 -14 8 -12 26 -288 145 -438 187 -3 1 -23 6 -45 13 -56 16 -241 52 -295 58
-61 7 -458 13 -463 7z m228 -243 c11 4 23 6 26 4 4 -2 42 -6 85 -9 96 -6 130
-10 259 -36 106 -21 318 -87 323 -101 2 -4 11 -8 19 -8 25 0 231 -111 313
-170 257 -181 446 -401 579 -672 44 -91 95 -219 106 -266 2 -9 12 -44 21 -77
17 -65 23 -87 29 -125 2 -14 6 -35 9 -48 20 -90 27 -395 13 -522 -16 -138 -29
-206 -66 -335 -39 -138 -106 -295 -168 -393 -18 -29 -33 -55 -33 -58 0 -3 -8
-16 -17 -29 -10 -12 -25 -33 -33 -45 -168 -254 -488 -508 -783 -621 -29 -11
-61 -24 -72 -29 -48 -21 -217 -65 -295 -76 -25 -3 -47 -7 -50 -9 -17 -10 -157
-19 -290 -19 -158 0 -271 8 -344 24 -56 12 -97 21 -121 25 -139 25 -420 147
-569 248 -148 99 -299 235 -392 352 -21 28 -41 52 -44 55 -20 18 -126 190
-163 266 -58 114 -112 251 -132 334 -33 132 -50 233 -61 355 -14 150 -2 386
28 530 5 28 11 59 13 70 2 11 4 20 5 20 1 0 3 10 6 22 11 62 81 249 129 347
140 288 354 531 610 696 39 24 72 47 75 50 9 10 212 107 260 125 139 51 257
83 375 101 17 3 41 7 55 9 14 2 70 7 125 11 55 3 102 8 104 9 1 2 13 0 25 -4
11 -5 30 -5 41 -1z"/>
<path d="M4327 4884 c-1 -1 -27 -4 -57 -7 -83 -9 -108 -16 -166 -44 -110 -53
-153 -129 -149 -255 4 -118 55 -188 170 -236 50 -21 178 -56 250 -69 69 -12
154 -46 183 -73 18 -17 30 -35 27 -40 -3 -5 -1 -11 4 -14 16 -10 -8 -90 -34
-113 -71 -63 -290 -64 -374 -2 -16 12 -39 41 -51 65 -20 37 -26 42 -49 38 -35
-6 -67 -11 -123 -20 -56 -8 -60 -20 -27 -89 41 -88 126 -153 244 -186 33 -9
98 -14 195 -13 157 1 226 16 311 70 104 65 148 210 104 339 -39 115 -122 162
-383 220 -176 38 -225 67 -238 139 -7 41 22 92 64 112 45 22 177 28 227 11 43
-15 88 -56 104 -95 12 -28 15 -29 49 -22 46 10 131 22 154 22 14 -1 15 4 7 26
-6 15 -10 28 -9 30 1 1 -8 23 -20 47 -49 101 -159 151 -353 159 -31 1 -58 2
-60 0z"/>
<path d="M2450 4858 c0 -5 11 -53 25 -107 14 -54 28 -107 30 -117 2 -11 23
-89 45 -174 23 -85 43 -162 45 -170 2 -8 15 -62 30 -120 15 -58 28 -113 30
-123 2 -10 9 -32 14 -50 6 -18 13 -45 17 -62 4 -16 8 -33 9 -37 2 -5 3 -14 4
-20 4 -38 18 -42 145 -43 81 -1 126 3 127 10 0 5 2 17 4 25 29 114 57 231 61
255 3 17 12 57 21 90 15 62 21 84 29 123 2 12 13 59 24 105 10 45 22 96 24
112 14 79 25 110 25 69 -1 -19 40 -216 60 -290 5 -21 12 -50 15 -64 3 -14 9
-40 15 -57 5 -18 8 -33 6 -33 -3 0 -1 -10 4 -23 5 -13 12 -39 15 -58 4 -19 19
-86 34 -149 l28 -115 122 0 c68 0 126 2 131 5 5 4 97 342 116 430 2 8 24 96
50 195 26 99 49 187 50 195 2 8 4 15 5 15 1 0 3 7 5 15 2 8 11 44 20 80 26
103 33 95 -82 97 -63 1 -105 -2 -109 -9 -6 -9 -12 -30 -29 -103 -3 -11 -8 -33
-11 -50 -3 -16 -11 -58 -19 -91 -8 -34 -16 -73 -19 -85 -2 -13 -11 -55 -20
-92 -9 -37 -18 -82 -21 -100 -2 -18 -12 -59 -20 -92 -22 -84 -25 -96 -31 -135
-6 -35 -27 -82 -22 -50 1 8 -2 35 -7 60 -5 25 -9 54 -10 65 -1 11 -5 29 -8 40
-3 11 -9 34 -12 50 -7 40 -7 42 -48 215 -60 250 -80 335 -77 335 2 0 -2 10 -9
22 -11 22 -17 23 -130 22 l-118 -2 -13 -56 c-8 -31 -15 -64 -17 -73 -1 -9 -14
-65 -28 -123 -13 -58 -27 -116 -29 -128 -2 -12 -9 -40 -14 -62 -6 -22 -13 -51
-16 -65 -3 -14 -7 -34 -10 -45 -3 -11 -15 -71 -28 -132 -13 -62 -26 -113 -29
-113 -5 0 -33 110 -43 175 -3 17 -12 57 -20 90 -22 88 -57 238 -59 255 -2 8
-16 74 -32 147 l-30 132 -107 0 c-61 -1 -108 -5 -108 -11z"/>
</g>
</svg>
