<?xml version="1.0" encoding="UTF-8" standalone="no"?>
<!DOCTYPE svg PUBLIC "-//W3C//DTD SVG 1.1//EN"
 "http://www.w3.org/Graphics/SVG/1.1/DTD/svg11.dtd">
<!-- Generated by graphviz version 2.38.0 (20140413.2041)
 -->
<!-- Title: controllers_diagram Pages: 1 -->
<svg width="1152pt" height="1071pt"
 viewBox="0.00 0.00 1151.72 1071.00" xmlns="http://www.w3.org/2000/svg" xmlns:xlink="http://www.w3.org/1999/xlink">
<g id="graph0" class="graph" transform="scale(1 1) rotate(0) translate(490.033 581.5)">
<title>controllers_diagram</title>
<polygon fill="none" stroke="none" points="-490.033,489.5 -490.033,-581.5 661.688,-581.5 661.688,489.5 -490.033,489.5"/>
<!-- _diagram_info -->
<g id="node1" class="node"><title>_diagram_info</title>
<text text-anchor="start" x="458.312" y="390.9" font-family="Times,serif" font-size="13.00">Controllers diagram</text>
<text text-anchor="start" x="458.312" y="403.9" font-family="Times,serif" font-size="13.00">Date: Jun 03 2016 &#45; 14:54</text>
<text text-anchor="start" x="458.312" y="416.9" font-family="Times,serif" font-size="13.00">Migration version: 20160513092136</text>
<text text-anchor="start" x="458.312" y="429.9" font-family="Times,serif" font-size="13.00">Generated by RailRoady 1.4.1</text>
<text text-anchor="start" x="458.312" y="442.9" font-family="Times,serif" font-size="13.00">http://railroady.prestonlee.com</text>
</g>
<!-- Admin::AdminController -->
<g id="node2" class="node"><title>Admin::AdminController</title>
<path fill="none" stroke="black" d="M-455.552,-469C-455.552,-469 -320.448,-469 -320.448,-469 -314.448,-469 -308.448,-475 -308.448,-481 -308.448,-481 -308.448,-547 -308.448,-547 -308.448,-553 -314.448,-559 -320.448,-559 -320.448,-559 -455.552,-559 -455.552,-559 -461.552,-559 -467.552,-553 -467.552,-547 -467.552,-547 -467.552,-481 -467.552,-481 -467.552,-475 -461.552,-469 -455.552,-469"/>
<text text-anchor="middle" x="-388" y="-543.8" font-family="Times,serif" font-size="14.00">Admin::AdminController</text>
<polyline fill="none" stroke="black" points="-467.552,-537 -308.448,-537 "/>
<text text-anchor="start" x="-459.552" y="-521.8" font-family="Times,serif" font-size="14.00">index</text>
<polyline fill="none" stroke="black" points="-467.552,-515 -308.448,-515 "/>
<polyline fill="none" stroke="black" points="-467.552,-491 -308.448,-491 "/>
<text text-anchor="start" x="-459.552" y="-475.8" font-family="Times,serif" font-size="14.00">_layout</text>
</g>
<!-- Admin::UsersController -->
<g id="node3" class="node"><title>Admin::UsersController</title>
<path fill="none" stroke="black" d="M-420.048,-109C-420.048,-109 -291.952,-109 -291.952,-109 -285.952,-109 -279.952,-115 -279.952,-121 -279.952,-121 -279.952,-215 -279.952,-215 -279.952,-221 -285.952,-227 -291.952,-227 -291.952,-227 -420.048,-227 -420.048,-227 -426.048,-227 -432.048,-221 -432.048,-215 -432.048,-215 -432.048,-121 -432.048,-121 -432.048,-115 -426.048,-109 -420.048,-109"/>
<text text-anchor="middle" x="-356" y="-211.8" font-family="Times,serif" font-size="14.00">Admin::UsersController</text>
<polyline fill="none" stroke="black" points="-432.048,-205 -279.952,-205 "/>
<text text-anchor="start" x="-424.048" y="-189.8" font-family="Times,serif" font-size="14.00">destroy</text>
<text text-anchor="start" x="-424.048" y="-175.8" font-family="Times,serif" font-size="14.00">index</text>
<polyline fill="none" stroke="black" points="-432.048,-169 -279.952,-169 "/>
<polyline fill="none" stroke="black" points="-432.048,-145 -279.952,-145 "/>
<text text-anchor="start" x="-424.048" y="-129.8" font-family="Times,serif" font-size="14.00">_layout</text>
<text text-anchor="start" x="-424.048" y="-115.8" font-family="Times,serif" font-size="14.00">set_user</text>
</g>
<!-- ApplicationController -->
<g id="node4" class="node"><title>ApplicationController</title>
<path fill="none" stroke="black" d="M11.5342,395C11.5342,395 178.466,395 178.466,395 184.466,395 190.466,389 190.466,383 190.466,383 190.466,289 190.466,289 190.466,283 184.466,277 178.466,277 178.466,277 11.5342,277 11.5342,277 5.53418,277 -0.46582,283 -0.46582,289 -0.46582,289 -0.46582,383 -0.46582,383 -0.46582,389 5.53418,395 11.5342,395"/>
<text text-anchor="middle" x="95" y="292.2" font-family="Times,serif" font-size="14.00">ApplicationController</text>
<polyline fill="none" stroke="black" points="-0.46582,299 190.466,299 "/>
<text text-anchor="start" x="7.53418" y="314.2" font-family="Times,serif" font-size="14.00">default_url_options</text>
<text text-anchor="start" x="7.53418" y="328.2" font-family="Times,serif" font-size="14.00">set_locale</text>
<polyline fill="none" stroke="black" points="-0.46582,335 190.466,335 "/>
<polyline fill="none" stroke="black" points="-0.46582,359 190.466,359 "/>
<text text-anchor="start" x="7.53418" y="374.2" font-family="Times,serif" font-size="14.00">_layout</text>
<text text-anchor="start" x="7.53418" y="388.2" font-family="Times,serif" font-size="14.00">authenticate_user_from_token!</text>
</g>
<!-- DocumentsController -->
<g id="node5" class="node"><title>DocumentsController</title>
<path fill="none" stroke="black" d="M354.345,71C354.345,71 467.655,71 467.655,71 473.655,71 479.655,65 479.655,59 479.655,59 479.655,-133 479.655,-133 479.655,-139 473.655,-145 467.655,-145 467.655,-145 354.345,-145 354.345,-145 348.345,-145 342.345,-139 342.345,-133 342.345,-133 342.345,59 342.345,59 342.345,65 348.345,71 354.345,71"/>
<text text-anchor="middle" x="411" y="-129.8" font-family="Times,serif" font-size="14.00">DocumentsController</text>
<polyline fill="none" stroke="black" points="342.345,-123 479.655,-123 "/>
<text text-anchor="start" x="350.345" y="-107.8" font-family="Times,serif" font-size="14.00">create</text>
<text text-anchor="start" x="350.345" y="-93.8" font-family="Times,serif" font-size="14.00">destroy</text>
<text text-anchor="start" x="350.345" y="-79.8" font-family="Times,serif" font-size="14.00">edit</text>
<text text-anchor="start" x="350.345" y="-65.8" font-family="Times,serif" font-size="14.00">index</text>
<text text-anchor="start" x="350.345" y="-51.8" font-family="Times,serif" font-size="14.00">new</text>
<text text-anchor="start" x="350.345" y="-37.8" font-family="Times,serif" font-size="14.00">show</text>
<text text-anchor="start" x="350.345" y="-23.8" font-family="Times,serif" font-size="14.00">show_content</text>
<text text-anchor="start" x="350.345" y="-9.8" font-family="Times,serif" font-size="14.00">update</text>
<polyline fill="none" stroke="black" points="342.345,-3 479.655,-3 "/>
<polyline fill="none" stroke="black" points="342.345,21 479.655,21 "/>
<text text-anchor="start" x="350.345" y="36.2" font-family="Times,serif" font-size="14.00">_layout</text>
<text text-anchor="start" x="350.345" y="50.2" font-family="Times,serif" font-size="14.00">document_params</text>
<text text-anchor="start" x="350.345" y="64.2" font-family="Times,serif" font-size="14.00">set_document</text>
</g>
<!-- EduController -->
<g id="node6" class="node"><title>EduController</title>
<path fill="none" stroke="black" d="M-114.048,359C-114.048,359 -41.9517,359 -41.9517,359 -35.9517,359 -29.9517,353 -29.9517,347 -29.9517,347 -29.9517,281 -29.9517,281 -29.9517,275 -35.9517,269 -41.9517,269 -41.9517,269 -114.048,269 -114.048,269 -120.048,269 -126.048,275 -126.048,281 -126.048,281 -126.048,347 -126.048,347 -126.048,353 -120.048,359 -114.048,359"/>
<text text-anchor="middle" x="-78" y="284.2" font-family="Times,serif" font-size="14.00">EduController</text>
<polyline fill="none" stroke="black" points="-126.048,291 -29.9517,291 "/>
<text text-anchor="start" x="-118.048" y="306.2" font-family="Times,serif" font-size="14.00">index</text>
<polyline fill="none" stroke="black" points="-126.048,313 -29.9517,313 "/>
<polyline fill="none" stroke="black" points="-126.048,337 -29.9517,337 "/>
<text text-anchor="start" x="-118.048" y="352.2" font-family="Times,serif" font-size="14.00">_layout</text>
</g>
<!-- ModelingController -->
<g id="node7" class="node"><title>ModelingController</title>
<path fill="none" stroke="black" d="M-311.993,485C-311.993,485 -208.007,485 -208.007,485 -202.007,485 -196.007,479 -196.007,473 -196.007,473 -196.007,407 -196.007,407 -196.007,401 -202.007,395 -208.007,395 -208.007,395 -311.993,395 -311.993,395 -317.993,395 -323.993,401 -323.993,407 -323.993,407 -323.993,473 -323.993,473 -323.993,479 -317.993,485 -311.993,485"/>
<text text-anchor="middle" x="-260" y="410.2" font-family="Times,serif" font-size="14.00">ModelingController</text>
<polyline fill="none" stroke="black" points="-323.993,417 -196.007,417 "/>
<text text-anchor="start" x="-315.993" y="432.2" font-family="Times,serif" font-size="14.00">index</text>
<polyline fill="none" stroke="black" points="-323.993,439 -196.007,439 "/>
<polyline fill="none" stroke="black" points="-323.993,463 -196.007,463 "/>
<text text-anchor="start" x="-315.993" y="478.2" font-family="Times,serif" font-size="14.00">_layout</text>
</g>
<!-- PersonsController -->
<g id="node8" class="node"><title>PersonsController</title>
<path fill="none" stroke="black" d="M-401.552,-325C-401.552,-325 -308.448,-325 -308.448,-325 -302.448,-325 -296.448,-331 -296.448,-337 -296.448,-337 -296.448,-417 -296.448,-417 -296.448,-423 -302.448,-429 -308.448,-429 -308.448,-429 -401.552,-429 -401.552,-429 -407.552,-429 -413.552,-423 -413.552,-417 -413.552,-417 -413.552,-337 -413.552,-337 -413.552,-331 -407.552,-325 -401.552,-325"/>
<text text-anchor="middle" x="-355" y="-413.8" font-family="Times,serif" font-size="14.00">PersonsController</text>
<polyline fill="none" stroke="black" points="-413.552,-407 -296.448,-407 "/>
<text text-anchor="start" x="-405.552" y="-391.8" font-family="Times,serif" font-size="14.00">profile</text>
<text text-anchor="start" x="-405.552" y="-377.8" font-family="Times,serif" font-size="14.00">test_output</text>
<polyline fill="none" stroke="black" points="-413.552,-371 -296.448,-371 "/>
<polyline fill="none" stroke="black" points="-413.552,-347 -296.448,-347 "/>
<text text-anchor="start" x="-405.552" y="-331.8" font-family="Times,serif" font-size="14.00">_layout</text>
</g>
<!-- StudentGroupsController -->
<g id="node9" class="node"><title>StudentGroupsController</title>
<path fill="none" stroke="black" d="M-59.7725,-127C-59.7725,-127 73.7725,-127 73.7725,-127 79.7725,-127 85.7725,-133 85.7725,-139 85.7725,-139 85.7725,-317 85.7725,-317 85.7725,-323 79.7725,-329 73.7725,-329 73.7725,-329 -59.7725,-329 -59.7725,-329 -65.7725,-329 -71.7725,-323 -71.7725,-317 -71.7725,-317 -71.7725,-139 -71.7725,-139 -71.7725,-133 -65.7725,-127 -59.7725,-127"/>
<text text-anchor="middle" x="7" y="-313.8" font-family="Times,serif" font-size="14.00">StudentGroupsController</text>
<polyline fill="none" stroke="black" points="-71.7725,-307 85.7725,-307 "/>
<text text-anchor="start" x="-63.7725" y="-291.8" font-family="Times,serif" font-size="14.00">create</text>
<text text-anchor="start" x="-63.7725" y="-277.8" font-family="Times,serif" font-size="14.00">destroy</text>
<text text-anchor="start" x="-63.7725" y="-263.8" font-family="Times,serif" font-size="14.00">edit</text>
<text text-anchor="start" x="-63.7725" y="-249.8" font-family="Times,serif" font-size="14.00">index</text>
<text text-anchor="start" x="-63.7725" y="-235.8" font-family="Times,serif" font-size="14.00">new</text>
<text text-anchor="start" x="-63.7725" y="-221.8" font-family="Times,serif" font-size="14.00">show</text>
<text text-anchor="start" x="-63.7725" y="-207.8" font-family="Times,serif" font-size="14.00">update</text>
<polyline fill="none" stroke="black" points="-71.7725,-201 85.7725,-201 "/>
<polyline fill="none" stroke="black" points="-71.7725,-177 85.7725,-177 "/>
<text text-anchor="start" x="-63.7725" y="-161.8" font-family="Times,serif" font-size="14.00">_layout</text>
<text text-anchor="start" x="-63.7725" y="-147.8" font-family="Times,serif" font-size="14.00">set_student_group</text>
<text text-anchor="start" x="-63.7725" y="-133.8" font-family="Times,serif" font-size="14.00">student_group_params</text>
</g>
<!-- StudentsController -->
<g id="node10" class="node"><title>StudentsController</title>
<path fill="none" stroke="black" d="M192.114,-361C192.114,-361 289.886,-361 289.886,-361 295.886,-361 301.886,-367 301.886,-373 301.886,-373 301.886,-565 301.886,-565 301.886,-571 295.886,-577 289.886,-577 289.886,-577 192.114,-577 192.114,-577 186.114,-577 180.114,-571 180.114,-565 180.114,-565 180.114,-373 180.114,-373 180.114,-367 186.114,-361 192.114,-361"/>
<text text-anchor="middle" x="241" y="-561.8" font-family="Times,serif" font-size="14.00">StudentsController</text>
<polyline fill="none" stroke="black" points="180.114,-555 301.886,-555 "/>
<text text-anchor="start" x="188.114" y="-539.8" font-family="Times,serif" font-size="14.00">create</text>
<text text-anchor="start" x="188.114" y="-525.8" font-family="Times,serif" font-size="14.00">destroy</text>
<text text-anchor="start" x="188.114" y="-511.8" font-family="Times,serif" font-size="14.00">edit</text>
<text text-anchor="start" x="188.114" y="-497.8" font-family="Times,serif" font-size="14.00">import</text>
<text text-anchor="start" x="188.114" y="-483.8" font-family="Times,serif" font-size="14.00">index</text>
<text text-anchor="start" x="188.114" y="-469.8" font-family="Times,serif" font-size="14.00">new</text>
<text text-anchor="start" x="188.114" y="-455.8" font-family="Times,serif" font-size="14.00">show</text>
<text text-anchor="start" x="188.114" y="-441.8" font-family="Times,serif" font-size="14.00">update</text>
<polyline fill="none" stroke="black" points="180.114,-435 301.886,-435 "/>
<polyline fill="none" stroke="black" points="180.114,-411 301.886,-411 "/>
<text text-anchor="start" x="188.114" y="-395.8" font-family="Times,serif" font-size="14.00">_layout</text>
<text text-anchor="start" x="188.114" y="-381.8" font-family="Times,serif" font-size="14.00">set_student</text>
<text text-anchor="start" x="188.114" y="-367.8" font-family="Times,serif" font-size="14.00">student_params</text>
</g>
<!-- SubjectsController -->
<g id="node11" class="node"><title>SubjectsController</title>
<path fill="none" stroke="black" d="M353.507,-181C353.507,-181 450.493,-181 450.493,-181 456.493,-181 462.493,-187 462.493,-193 462.493,-193 462.493,-371 462.493,-371 462.493,-377 456.493,-383 450.493,-383 450.493,-383 353.507,-383 353.507,-383 347.507,-383 341.507,-377 341.507,-371 341.507,-371 341.507,-193 341.507,-193 341.507,-187 347.507,-181 353.507,-181"/>
<text text-anchor="middle" x="402" y="-367.8" font-family="Times,serif" font-size="14.00">SubjectsController</text>
<polyline fill="none" stroke="black" points="341.507,-361 462.493,-361 "/>
<text text-anchor="start" x="349.507" y="-345.8" font-family="Times,serif" font-size="14.00">create</text>
<text text-anchor="start" x="349.507" y="-331.8" font-family="Times,serif" font-size="14.00">destroy</text>
<text text-anchor="start" x="349.507" y="-317.8" font-family="Times,serif" font-size="14.00">edit</text>
<text text-anchor="start" x="349.507" y="-303.8" font-family="Times,serif" font-size="14.00">index</text>
<text text-anchor="start" x="349.507" y="-289.8" font-family="Times,serif" font-size="14.00">new</text>
<text text-anchor="start" x="349.507" y="-275.8" font-family="Times,serif" font-size="14.00">show</text>
<text text-anchor="start" x="349.507" y="-261.8" font-family="Times,serif" font-size="14.00">update</text>
<polyline fill="none" stroke="black" points="341.507,-255 462.493,-255 "/>
<polyline fill="none" stroke="black" points="341.507,-231 462.493,-231 "/>
<text text-anchor="start" x="349.507" y="-215.8" font-family="Times,serif" font-size="14.00">_layout</text>
<text text-anchor="start" x="349.507" y="-201.8" font-family="Times,serif" font-size="14.00">set_subject</text>
<text text-anchor="start" x="349.507" y="-187.8" font-family="Times,serif" font-size="14.00">subject_params</text>
</g>
<!-- Users::ConfirmationsController -->
<g id="node12" class="node"><title>Users::ConfirmationsController</title>
<path fill="none" stroke="black" d="M-347.662,359C-347.662,359 -178.338,359 -178.338,359 -172.338,359 -166.338,353 -166.338,347 -166.338,347 -166.338,279 -166.338,279 -166.338,273 -172.338,267 -178.338,267 -178.338,267 -347.662,267 -347.662,267 -353.662,267 -359.662,273 -359.662,279 -359.662,279 -359.662,347 -359.662,347 -359.662,353 -353.662,359 -347.662,359"/>
<text text-anchor="middle" x="-263" y="282.2" font-family="Times,serif" font-size="14.00">Users::ConfirmationsController</text>
<polyline fill="none" stroke="black" points="-359.662,289 -166.338,289 "/>
<polyline fill="none" stroke="black" points="-359.662,313 -166.338,313 "/>
<polyline fill="none" stroke="black" points="-359.662,337 -166.338,337 "/>
<text text-anchor="start" x="-351.662" y="352.2" font-family="Times,serif" font-size="14.00">_layout</text>
</g>
<!-- Users::OmniauthCallbacksController -->
<g id="node13" class="node"><title>Users::OmniauthCallbacksController</title>
<path fill="none" stroke="black" d="M11.7964,233C11.7964,233 212.204,233 212.204,233 218.204,233 224.204,227 224.204,221 224.204,221 224.204,153 224.204,153 224.204,147 218.204,141 212.204,141 212.204,141 11.7964,141 11.7964,141 5.79639,141 -0.203613,147 -0.203613,153 -0.203613,153 -0.203613,221 -0.203613,221 -0.203613,227 5.79639,233 11.7964,233"/>
<text text-anchor="middle" x="112" y="156.2" font-family="Times,serif" font-size="14.00">Users::OmniauthCallbacksController</text>
<polyline fill="none" stroke="black" points="-0.203613,163 224.204,163 "/>
<polyline fill="none" stroke="black" points="-0.203613,187 224.204,187 "/>
<polyline fill="none" stroke="black" points="-0.203613,211 224.204,211 "/>
<text text-anchor="start" x="7.79639" y="226.2" font-family="Times,serif" font-size="14.00">_layout</text>
</g>
<!-- Users::PasswordsController -->
<g id="node14" class="node"><title>Users::PasswordsController</title>
<path fill="none" stroke="black" d="M245.838,449C245.838,449 394.162,449 394.162,449 400.162,449 406.162,443 406.162,437 406.162,437 406.162,369 406.162,369 406.162,363 400.162,357 394.162,357 394.162,357 245.838,357 245.838,357 239.838,357 233.838,363 233.838,369 233.838,369 233.838,437 233.838,437 233.838,443 239.838,449 245.838,449"/>
<text text-anchor="middle" x="320" y="372.2" font-family="Times,serif" font-size="14.00">Users::PasswordsController</text>
<polyline fill="none" stroke="black" points="233.838,379 406.162,379 "/>
<polyline fill="none" stroke="black" points="233.838,403 406.162,403 "/>
<polyline fill="none" stroke="black" points="233.838,427 406.162,427 "/>
<text text-anchor="start" x="241.838" y="442.2" font-family="Times,serif" font-size="14.00">_layout</text>
</g>
<!-- Users::RegistrationsController -->
<g id="node15" class="node"><title>Users::RegistrationsController</title>
<path fill="none" stroke="black" d="M426.455,-415C426.455,-415 589.545,-415 589.545,-415 595.545,-415 601.545,-421 601.545,-427 601.545,-427 601.545,-507 601.545,-507 601.545,-513 595.545,-519 589.545,-519 589.545,-519 426.455,-519 426.455,-519 420.455,-519 414.455,-513 414.455,-507 414.455,-507 414.455,-427 414.455,-427 414.455,-421 420.455,-415 426.455,-415"/>
<text text-anchor="middle" x="508" y="-503.8" font-family="Times,serif" font-size="14.00">Users::RegistrationsController</text>
<polyline fill="none" stroke="black" points="414.455,-497 601.545,-497 "/>
<text text-anchor="start" x="422.455" y="-481.8" font-family="Times,serif" font-size="14.00">create</text>
<text text-anchor="start" x="422.455" y="-467.8" font-family="Times,serif" font-size="14.00">new</text>
<polyline fill="none" stroke="black" points="414.455,-461 601.545,-461 "/>
<polyline fill="none" stroke="black" points="414.455,-437 601.545,-437 "/>
<text text-anchor="start" x="422.455" y="-421.8" font-family="Times,serif" font-size="14.00">_layout</text>
</g>
<!-- Users::SessionsController -->
<g id="node16" class="node"><title>Users::SessionsController</title>
<path fill="none" stroke="black" d="M-437.721,143C-437.721,143 -300.279,143 -300.279,143 -294.279,143 -288.279,137 -288.279,131 -288.279,131 -288.279,63 -288.279,63 -288.279,57 -294.279,51 -300.279,51 -300.279,51 -437.721,51 -437.721,51 -443.721,51 -449.721,57 -449.721,63 -449.721,63 -449.721,131 -449.721,131 -449.721,137 -443.721,143 -437.721,143"/>
<text text-anchor="middle" x="-369" y="66.2" font-family="Times,serif" font-size="14.00">Users::SessionsController</text>
<polyline fill="none" stroke="black" points="-449.721,73 -288.279,73 "/>
<polyline fill="none" stroke="black" points="-449.721,97 -288.279,97 "/>
<polyline fill="none" stroke="black" points="-449.721,121 -288.279,121 "/>
<text text-anchor="start" x="-441.721" y="136.2" font-family="Times,serif" font-size="14.00">_layout</text>
</g>
<!-- Users::UnlocksController -->
<g id="node17" class="node"><title>Users::UnlocksController</title>
<path fill="none" stroke="black" d="M-437.935,17C-437.935,17 -302.065,17 -302.065,17 -296.065,17 -290.065,11 -290.065,5 -290.065,5 -290.065,-63 -290.065,-63 -290.065,-69 -296.065,-75 -302.065,-75 -302.065,-75 -437.935,-75 -437.935,-75 -443.935,-75 -449.935,-69 -449.935,-63 -449.935,-63 -449.935,5 -449.935,5 -449.935,11 -443.935,17 -437.935,17"/>
<text text-anchor="middle" x="-370" y="-59.8" font-family="Times,serif" font-size="14.00">Users::UnlocksController</text>
<polyline fill="none" stroke="black" points="-449.935,-53 -290.065,-53 "/>
<polyline fill="none" stroke="black" points="-449.935,-29 -290.065,-29 "/>
<polyline fill="none" stroke="black" points="-449.935,-5 -290.065,-5 "/>
<text text-anchor="start" x="-441.935" y="10.2" font-family="Times,serif" font-size="14.00">_layout</text>
</g>
<!-- WelcomeController -->
<g id="node18" class="node"><title>WelcomeController</title>
<path fill="none" stroke="black" d="M-474.033,485C-474.033,485 -371.967,485 -371.967,485 -365.967,485 -359.967,479 -359.967,473 -359.967,473 -359.967,405 -359.967,405 -359.967,399 -365.967,393 -371.967,393 -371.967,393 -474.033,393 -474.033,393 -480.033,393 -486.033,399 -486.033,405 -486.033,405 -486.033,473 -486.033,473 -486.033,479 -480.033,485 -474.033,485"/>
<text text-anchor="middle" x="-423" y="408.2" font-family="Times,serif" font-size="14.00">WelcomeController</text>
<polyline fill="none" stroke="black" points="-486.033,415 -359.967,415 "/>
<polyline fill="none" stroke="black" points="-486.033,439 -359.967,439 "/>
<polyline fill="none" stroke="black" points="-486.033,463 -359.967,463 "/>
<text text-anchor="start" x="-478.033" y="478.2" font-family="Times,serif" font-size="14.00">_layout</text>
</g>
<!-- WsJobsController -->
<g id="node19" class="node"><title>WsJobsController</title>
<path fill="none" stroke="black" d="M48.4482,-361C48.4482,-361 141.552,-361 141.552,-361 147.552,-361 153.552,-367 153.552,-373 153.552,-373 153.552,-551 153.552,-551 153.552,-557 147.552,-563 141.552,-563 141.552,-563 48.4482,-563 48.4482,-563 42.4482,-563 36.4482,-557 36.4482,-551 36.4482,-551 36.4482,-373 36.4482,-373 36.4482,-367 42.4482,-361 48.4482,-361"/>
<text text-anchor="middle" x="95" y="-547.8" font-family="Times,serif" font-size="14.00">WsJobsController</text>
<polyline fill="none" stroke="black" points="36.4482,-541 153.552,-541 "/>
<text text-anchor="start" x="44.4482" y="-525.8" font-family="Times,serif" font-size="14.00">create</text>
<text text-anchor="start" x="44.4482" y="-511.8" font-family="Times,serif" font-size="14.00">destroy</text>
<text text-anchor="start" x="44.4482" y="-497.8" font-family="Times,serif" font-size="14.00">edit</text>
<text text-anchor="start" x="44.4482" y="-483.8" font-family="Times,serif" font-size="14.00">index</text>
<text text-anchor="start" x="44.4482" y="-469.8" font-family="Times,serif" font-size="14.00">new</text>
<text text-anchor="start" x="44.4482" y="-455.8" font-family="Times,serif" font-size="14.00">show</text>
<text text-anchor="start" x="44.4482" y="-441.8" font-family="Times,serif" font-size="14.00">update</text>
<polyline fill="none" stroke="black" points="36.4482,-435 153.552,-435 "/>
<polyline fill="none" stroke="black" points="36.4482,-411 153.552,-411 "/>
<text text-anchor="start" x="44.4482" y="-395.8" font-family="Times,serif" font-size="14.00">_layout</text>
<text text-anchor="start" x="44.4482" y="-381.8" font-family="Times,serif" font-size="14.00">set_ws_job</text>
<text text-anchor="start" x="44.4482" y="-367.8" font-family="Times,serif" font-size="14.00">ws_job_params</text>
</g>
<!-- WsMethodsController -->
<g id="node20" class="node"><title>WsMethodsController</title>
<path fill="none" stroke="black" d="M336.396,323C336.396,323 453.604,323 453.604,323 459.604,323 465.604,317 465.604,311 465.604,311 465.604,119 465.604,119 465.604,113 459.604,107 453.604,107 453.604,107 336.396,107 336.396,107 330.396,107 324.396,113 324.396,119 324.396,119 324.396,311 324.396,311 324.396,317 330.396,323 336.396,323"/>
<text text-anchor="middle" x="395" y="122.2" font-family="Times,serif" font-size="14.00">WsMethodsController</text>
<polyline fill="none" stroke="black" points="324.396,129 465.604,129 "/>
<text text-anchor="start" x="332.396" y="144.2" font-family="Times,serif" font-size="14.00">create</text>
<text text-anchor="start" x="332.396" y="158.2" font-family="Times,serif" font-size="14.00">destroy</text>
<text text-anchor="start" x="332.396" y="172.2" font-family="Times,serif" font-size="14.00">edit</text>
<text text-anchor="start" x="332.396" y="186.2" font-family="Times,serif" font-size="14.00">index</text>
<text text-anchor="start" x="332.396" y="200.2" font-family="Times,serif" font-size="14.00">new</text>
<text text-anchor="start" x="332.396" y="214.2" font-family="Times,serif" font-size="14.00">show</text>
<text text-anchor="start" x="332.396" y="228.2" font-family="Times,serif" font-size="14.00">test</text>
<text text-anchor="start" x="332.396" y="242.2" font-family="Times,serif" font-size="14.00">update</text>
<polyline fill="none" stroke="black" points="324.396,249 465.604,249 "/>
<polyline fill="none" stroke="black" points="324.396,273 465.604,273 "/>
<text text-anchor="start" x="332.396" y="288.2" font-family="Times,serif" font-size="14.00">_layout</text>
<text text-anchor="start" x="332.396" y="302.2" font-family="Times,serif" font-size="14.00">set_ws_method</text>
<text text-anchor="start" x="332.396" y="316.2" font-family="Times,serif" font-size="14.00">ws_method_params</text>
</g>
<!-- WsModelRunsController -->
<g id="node21" class="node"><title>WsModelRunsController</title>
<path fill="none" stroke="black" d="M-257.772,-271C-257.772,-271 -124.228,-271 -124.228,-271 -118.228,-271 -112.228,-277 -112.228,-283 -112.228,-283 -112.228,-475 -112.228,-475 -112.228,-481 -118.228,-487 -124.228,-487 -124.228,-487 -257.772,-487 -257.772,-487 -263.772,-487 -269.772,-481 -269.772,-475 -269.772,-475 -269.772,-283 -269.772,-283 -269.772,-277 -263.772,-271 -257.772,-271"/>
<text text-anchor="middle" x="-191" y="-471.8" font-family="Times,serif" font-size="14.00">WsModelRunsController</text>
<polyline fill="none" stroke="black" points="-269.772,-465 -112.228,-465 "/>
<text text-anchor="start" x="-261.772" y="-449.8" font-family="Times,serif" font-size="14.00">create</text>
<text text-anchor="start" x="-261.772" y="-435.8" font-family="Times,serif" font-size="14.00">destroy</text>
<text text-anchor="start" x="-261.772" y="-421.8" font-family="Times,serif" font-size="14.00">edit</text>
<text text-anchor="start" x="-261.772" y="-407.8" font-family="Times,serif" font-size="14.00">index</text>
<text text-anchor="start" x="-261.772" y="-393.8" font-family="Times,serif" font-size="14.00">new</text>
<text text-anchor="start" x="-261.772" y="-379.8" font-family="Times,serif" font-size="14.00">ranking</text>
<text text-anchor="start" x="-261.772" y="-365.8" font-family="Times,serif" font-size="14.00">show</text>
<text text-anchor="start" x="-261.772" y="-351.8" font-family="Times,serif" font-size="14.00">update</text>
<polyline fill="none" stroke="black" points="-269.772,-345 -112.228,-345 "/>
<polyline fill="none" stroke="black" points="-269.772,-321 -112.228,-321 "/>
<text text-anchor="start" x="-261.772" y="-305.8" font-family="Times,serif" font-size="14.00">_layout</text>
<text text-anchor="start" x="-261.772" y="-291.8" font-family="Times,serif" font-size="14.00">set_ws_model_run</text>
<text text-anchor="start" x="-261.772" y="-277.8" font-family="Times,serif" font-size="14.00">ws_model_run_params</text>
</g>
<!-- WsModelStatusesController -->
<g id="node22" class="node"><title>WsModelStatusesController</title>
<path fill="none" stroke="black" d="M119.676,107C119.676,107 270.324,107 270.324,107 276.324,107 282.324,101 282.324,95 282.324,95 282.324,-83 282.324,-83 282.324,-89 276.324,-95 270.324,-95 270.324,-95 119.676,-95 119.676,-95 113.676,-95 107.676,-89 107.676,-83 107.676,-83 107.676,95 107.676,95 107.676,101 113.676,107 119.676,107"/>
<text text-anchor="middle" x="195" y="-79.8" font-family="Times,serif" font-size="14.00">WsModelStatusesController</text>
<polyline fill="none" stroke="black" points="107.676,-73 282.324,-73 "/>
<text text-anchor="start" x="115.676" y="-57.8" font-family="Times,serif" font-size="14.00">create</text>
<text text-anchor="start" x="115.676" y="-43.8" font-family="Times,serif" font-size="14.00">destroy</text>
<text text-anchor="start" x="115.676" y="-29.8" font-family="Times,serif" font-size="14.00">edit</text>
<text text-anchor="start" x="115.676" y="-15.8" font-family="Times,serif" font-size="14.00">index</text>
<text text-anchor="start" x="115.676" y="-1.8" font-family="Times,serif" font-size="14.00">new</text>
<text text-anchor="start" x="115.676" y="12.2" font-family="Times,serif" font-size="14.00">show</text>
<text text-anchor="start" x="115.676" y="26.2" font-family="Times,serif" font-size="14.00">update</text>
<polyline fill="none" stroke="black" points="107.676,33 282.324,33 "/>
<polyline fill="none" stroke="black" points="107.676,57 282.324,57 "/>
<text text-anchor="start" x="115.676" y="72.2" font-family="Times,serif" font-size="14.00">_layout</text>
<text text-anchor="start" x="115.676" y="86.2" font-family="Times,serif" font-size="14.00">set_ws_model_status</text>
<text text-anchor="start" x="115.676" y="100.2" font-family="Times,serif" font-size="14.00">ws_model_status_params</text>
</g>
<!-- WsModelsController -->
<g id="node23" class="node"><title>WsModelsController</title>
<path fill="none" stroke="black" d="M-240.104,233C-240.104,233 -129.896,233 -129.896,233 -123.896,233 -117.896,227 -117.896,221 -117.896,221 -117.896,43 -117.896,43 -117.896,37 -123.896,31 -129.896,31 -129.896,31 -240.104,31 -240.104,31 -246.104,31 -252.104,37 -252.104,43 -252.104,43 -252.104,221 -252.104,221 -252.104,227 -246.104,233 -240.104,233"/>
<text text-anchor="middle" x="-185" y="46.2" font-family="Times,serif" font-size="14.00">WsModelsController</text>
<polyline fill="none" stroke="black" points="-252.104,53 -117.896,53 "/>
<text text-anchor="start" x="-244.104" y="68.2" font-family="Times,serif" font-size="14.00">create</text>
<text text-anchor="start" x="-244.104" y="82.2" font-family="Times,serif" font-size="14.00">destroy</text>
<text text-anchor="start" x="-244.104" y="96.2" font-family="Times,serif" font-size="14.00">edit</text>
<text text-anchor="start" x="-244.104" y="110.2" font-family="Times,serif" font-size="14.00">index</text>
<text text-anchor="start" x="-244.104" y="124.2" font-family="Times,serif" font-size="14.00">new</text>
<text text-anchor="start" x="-244.104" y="138.2" font-family="Times,serif" font-size="14.00">show</text>
<text text-anchor="start" x="-244.104" y="152.2" font-family="Times,serif" font-size="14.00">update</text>
<polyline fill="none" stroke="black" points="-252.104,159 -117.896,159 "/>
<polyline fill="none" stroke="black" points="-252.104,183 -117.896,183 "/>
<text text-anchor="start" x="-244.104" y="198.2" font-family="Times,serif" font-size="14.00">_layout</text>
<text text-anchor="start" x="-244.104" y="212.2" font-family="Times,serif" font-size="14.00">set_ws_model</text>
<text text-anchor="start" x="-244.104" y="226.2" font-family="Times,serif" font-size="14.00">ws_model_params</text>
</g>
<!-- WsParamValuesController -->
<g id="node24" class="node"><title>WsParamValuesController</title>
<path fill="none" stroke="black" d="M-77.6484,107C-77.6484,107 63.6484,107 63.6484,107 69.6484,107 75.6484,101 75.6484,95 75.6484,95 75.6484,-83 75.6484,-83 75.6484,-89 69.6484,-95 63.6484,-95 63.6484,-95 -77.6484,-95 -77.6484,-95 -83.6484,-95 -89.6484,-89 -89.6484,-83 -89.6484,-83 -89.6484,95 -89.6484,95 -89.6484,101 -83.6484,107 -77.6484,107"/>
<text text-anchor="middle" x="-7" y="-79.8" font-family="Times,serif" font-size="14.00">WsParamValuesController</text>
<polyline fill="none" stroke="black" points="-89.6484,-73 75.6484,-73 "/>
<text text-anchor="start" x="-81.6484" y="-57.8" font-family="Times,serif" font-size="14.00">create</text>
<text text-anchor="start" x="-81.6484" y="-43.8" font-family="Times,serif" font-size="14.00">destroy</text>
<text text-anchor="start" x="-81.6484" y="-29.8" font-family="Times,serif" font-size="14.00">edit</text>
<text text-anchor="start" x="-81.6484" y="-15.8" font-family="Times,serif" font-size="14.00">index</text>
<text text-anchor="start" x="-81.6484" y="-1.8" font-family="Times,serif" font-size="14.00">new</text>
<text text-anchor="start" x="-81.6484" y="12.2" font-family="Times,serif" font-size="14.00">show</text>
<text text-anchor="start" x="-81.6484" y="26.2" font-family="Times,serif" font-size="14.00">update</text>
<polyline fill="none" stroke="black" points="-89.6484,33 75.6484,33 "/>
<polyline fill="none" stroke="black" points="-89.6484,57 75.6484,57 "/>
<text text-anchor="start" x="-81.6484" y="72.2" font-family="Times,serif" font-size="14.00">_layout</text>
<text text-anchor="start" x="-81.6484" y="86.2" font-family="Times,serif" font-size="14.00">set_ws_param_value</text>
<text text-anchor="start" x="-81.6484" y="100.2" font-family="Times,serif" font-size="14.00">ws_param_value_params</text>
</g>
<!-- WsParamsController -->
<g id="node25" class="node"><title>WsParamsController</title>
<path fill="none" stroke="black" d="M-239.71,-1C-239.71,-1 -130.29,-1 -130.29,-1 -124.29,-1 -118.29,-7 -118.29,-13 -118.29,-13 -118.29,-191 -118.29,-191 -118.29,-197 -124.29,-203 -130.29,-203 -130.29,-203 -239.71,-203 -239.71,-203 -245.71,-203 -251.71,-197 -251.71,-191 -251.71,-191 -251.71,-13 -251.71,-13 -251.71,-7 -245.71,-1 -239.71,-1"/>
<text text-anchor="middle" x="-185" y="-187.8" font-family="Times,serif" font-size="14.00">WsParamsController</text>
<polyline fill="none" stroke="black" points="-251.71,-181 -118.29,-181 "/>
<text text-anchor="start" x="-243.71" y="-165.8" font-family="Times,serif" font-size="14.00">create</text>
<text text-anchor="start" x="-243.71" y="-151.8" font-family="Times,serif" font-size="14.00">destroy</text>
<text text-anchor="start" x="-243.71" y="-137.8" font-family="Times,serif" font-size="14.00">edit</text>
<text text-anchor="start" x="-243.71" y="-123.8" font-family="Times,serif" font-size="14.00">index</text>
<text text-anchor="start" x="-243.71" y="-109.8" font-family="Times,serif" font-size="14.00">new</text>
<text text-anchor="start" x="-243.71" y="-95.8" font-family="Times,serif" font-size="14.00">show</text>
<text text-anchor="start" x="-243.71" y="-81.8" font-family="Times,serif" font-size="14.00">update</text>
<polyline fill="none" stroke="black" points="-251.71,-75 -118.29,-75 "/>
<polyline fill="none" stroke="black" points="-251.71,-51 -118.29,-51 "/>
<text text-anchor="start" x="-243.71" y="-35.8" font-family="Times,serif" font-size="14.00">_layout</text>
<text text-anchor="start" x="-243.71" y="-21.8" font-family="Times,serif" font-size="14.00">set_ws_param</text>
<text text-anchor="start" x="-243.71" y="-7.8" font-family="Times,serif" font-size="14.00">ws_param_params</text>
</g>
<!-- WsSetModelRunsController -->
<g id="node26" class="node"><title>WsSetModelRunsController</title>
<path fill="none" stroke="black" d="M138.283,-127C138.283,-127 289.717,-127 289.717,-127 295.717,-127 301.717,-133 301.717,-139 301.717,-139 301.717,-317 301.717,-317 301.717,-323 295.717,-329 289.717,-329 289.717,-329 138.283,-329 138.283,-329 132.283,-329 126.283,-323 126.283,-317 126.283,-317 126.283,-139 126.283,-139 126.283,-133 132.283,-127 138.283,-127"/>
<text text-anchor="middle" x="214" y="-313.8" font-family="Times,serif" font-size="14.00">WsSetModelRunsController</text>
<polyline fill="none" stroke="black" points="126.283,-307 301.717,-307 "/>
<text text-anchor="start" x="134.283" y="-291.8" font-family="Times,serif" font-size="14.00">create</text>
<text text-anchor="start" x="134.283" y="-277.8" font-family="Times,serif" font-size="14.00">destroy</text>
<text text-anchor="start" x="134.283" y="-263.8" font-family="Times,serif" font-size="14.00">edit</text>
<text text-anchor="start" x="134.283" y="-249.8" font-family="Times,serif" font-size="14.00">index</text>
<text text-anchor="start" x="134.283" y="-235.8" font-family="Times,serif" font-size="14.00">new</text>
<text text-anchor="start" x="134.283" y="-221.8" font-family="Times,serif" font-size="14.00">show</text>
<text text-anchor="start" x="134.283" y="-207.8" font-family="Times,serif" font-size="14.00">update</text>
<polyline fill="none" stroke="black" points="126.283,-201 301.717,-201 "/>
<polyline fill="none" stroke="black" points="126.283,-177 301.717,-177 "/>
<text text-anchor="start" x="134.283" y="-161.8" font-family="Times,serif" font-size="14.00">_layout</text>
<text text-anchor="start" x="134.283" y="-147.8" font-family="Times,serif" font-size="14.00">set_ws_set_model_run</text>
<text text-anchor="start" x="134.283" y="-133.8" font-family="Times,serif" font-size="14.00">ws_set_model_run_params</text>
</g>
</g>
</svg>
