<?xml version="1.0" encoding="UTF-8" standalone="no"?>
<!DOCTYPE svg PUBLIC "-//W3C//DTD SVG 1.1//EN"
 "http://www.w3.org/Graphics/SVG/1.1/DTD/svg11.dtd">
<!-- Generated by graphviz version 2.38.0 (20140413.2041)
 -->
<!-- Title: controllers_diagram Pages: 1 -->
<svg width="882pt" height="861pt"
 viewBox="0.00 0.00 881.98 861.00" xmlns="http://www.w3.org/2000/svg" xmlns:xlink="http://www.w3.org/1999/xlink">
<g id="graph0" class="graph" transform="scale(1 1) rotate(0) translate(378.048 483.5)">
<title>controllers_diagram</title>
<polygon fill="none" stroke="none" points="-378.048,377.5 -378.048,-483.5 503.935,-483.5 503.935,377.5 -378.048,377.5"/>
<!-- _diagram_info -->
<g id="node1" class="node"><title>_diagram_info</title>
<text text-anchor="start" x="262.55" y="-127.1" font-family="Times,serif" font-size="13.00">Controllers diagram</text>
<text text-anchor="start" x="262.55" y="-114.1" font-family="Times,serif" font-size="13.00">Date: Nov 14 2015 &#45; 23:09</text>
<text text-anchor="start" x="262.55" y="-101.1" font-family="Times,serif" font-size="13.00">Migration version: 20151031143344</text>
<text text-anchor="start" x="262.55" y="-88.1" font-family="Times,serif" font-size="13.00">Generated by RailRoady 1.4.1</text>
<text text-anchor="start" x="262.55" y="-75.1" font-family="Times,serif" font-size="13.00">http://railroady.prestonlee.com</text>
</g>
<!-- Admin::AdminController -->
<g id="node2" class="node"><title>Admin::AdminController</title>
<path fill="none" stroke="black" d="M335.448,-171C335.448,-171 470.552,-171 470.552,-171 476.552,-171 482.552,-177 482.552,-183 482.552,-183 482.552,-263 482.552,-263 482.552,-269 476.552,-275 470.552,-275 470.552,-275 335.448,-275 335.448,-275 329.448,-275 323.448,-269 323.448,-263 323.448,-263 323.448,-183 323.448,-183 323.448,-177 329.448,-171 335.448,-171"/>
<text text-anchor="middle" x="403" y="-259.8" font-family="Times,serif" font-size="14.00">Admin::AdminController</text>
<polyline fill="none" stroke="black" points="323.448,-253 482.552,-253 "/>
<text text-anchor="start" x="331.448" y="-237.8" font-family="Times,serif" font-size="14.00">formula_tester</text>
<text text-anchor="start" x="331.448" y="-223.8" font-family="Times,serif" font-size="14.00">index</text>
<polyline fill="none" stroke="black" points="323.448,-217 482.552,-217 "/>
<polyline fill="none" stroke="black" points="323.448,-193 482.552,-193 "/>
<text text-anchor="start" x="331.448" y="-177.8" font-family="Times,serif" font-size="14.00">_layout</text>
</g>
<!-- Admin::UsersController -->
<g id="node3" class="node"><title>Admin::UsersController</title>
<path fill="none" stroke="black" d="M334.952,-307C334.952,-307 463.048,-307 463.048,-307 469.048,-307 475.048,-313 475.048,-319 475.048,-319 475.048,-413 475.048,-413 475.048,-419 469.048,-425 463.048,-425 463.048,-425 334.952,-425 334.952,-425 328.952,-425 322.952,-419 322.952,-413 322.952,-413 322.952,-319 322.952,-319 322.952,-313 328.952,-307 334.952,-307"/>
<text text-anchor="middle" x="399" y="-409.8" font-family="Times,serif" font-size="14.00">Admin::UsersController</text>
<polyline fill="none" stroke="black" points="322.952,-403 475.048,-403 "/>
<text text-anchor="start" x="330.952" y="-387.8" font-family="Times,serif" font-size="14.00">destroy</text>
<text text-anchor="start" x="330.952" y="-373.8" font-family="Times,serif" font-size="14.00">index</text>
<polyline fill="none" stroke="black" points="322.952,-367 475.048,-367 "/>
<polyline fill="none" stroke="black" points="322.952,-343 475.048,-343 "/>
<text text-anchor="start" x="330.952" y="-327.8" font-family="Times,serif" font-size="14.00">_layout</text>
<text text-anchor="start" x="330.952" y="-313.8" font-family="Times,serif" font-size="14.00">set_user</text>
</g>
<!-- ApplicationController -->
<g id="node4" class="node"><title>ApplicationController</title>
<path fill="none" stroke="black" d="M266.534,84C266.534,84 433.466,84 433.466,84 439.466,84 445.466,78 445.466,72 445.466,72 445.466,-22 445.466,-22 445.466,-28 439.466,-34 433.466,-34 433.466,-34 266.534,-34 266.534,-34 260.534,-34 254.534,-28 254.534,-22 254.534,-22 254.534,72 254.534,72 254.534,78 260.534,84 266.534,84"/>
<text text-anchor="middle" x="350" y="-18.8" font-family="Times,serif" font-size="14.00">ApplicationController</text>
<polyline fill="none" stroke="black" points="254.534,-12 445.466,-12 "/>
<text text-anchor="start" x="262.534" y="3.2" font-family="Times,serif" font-size="14.00">default_url_options</text>
<text text-anchor="start" x="262.534" y="17.2" font-family="Times,serif" font-size="14.00">set_locale</text>
<polyline fill="none" stroke="black" points="254.534,24 445.466,24 "/>
<polyline fill="none" stroke="black" points="254.534,48 445.466,48 "/>
<text text-anchor="start" x="262.534" y="63.2" font-family="Times,serif" font-size="14.00">_layout</text>
<text text-anchor="start" x="262.534" y="77.2" font-family="Times,serif" font-size="14.00">authenticate_user_from_token!</text>
</g>
<!-- DocumentsController -->
<g id="node5" class="node"><title>DocumentsController</title>
<path fill="none" stroke="black" d="M-72.6553,118C-72.6553,118 40.6553,118 40.6553,118 46.6553,118 52.6553,112 52.6553,106 52.6553,106 52.6553,-86 52.6553,-86 52.6553,-92 46.6553,-98 40.6553,-98 40.6553,-98 -72.6553,-98 -72.6553,-98 -78.6553,-98 -84.6553,-92 -84.6553,-86 -84.6553,-86 -84.6553,106 -84.6553,106 -84.6553,112 -78.6553,118 -72.6553,118"/>
<text text-anchor="middle" x="-16" y="-82.8" font-family="Times,serif" font-size="14.00">DocumentsController</text>
<polyline fill="none" stroke="black" points="-84.6553,-76 52.6553,-76 "/>
<text text-anchor="start" x="-76.6553" y="-60.8" font-family="Times,serif" font-size="14.00">create</text>
<text text-anchor="start" x="-76.6553" y="-46.8" font-family="Times,serif" font-size="14.00">destroy</text>
<text text-anchor="start" x="-76.6553" y="-32.8" font-family="Times,serif" font-size="14.00">edit</text>
<text text-anchor="start" x="-76.6553" y="-18.8" font-family="Times,serif" font-size="14.00">index</text>
<text text-anchor="start" x="-76.6553" y="-4.8" font-family="Times,serif" font-size="14.00">new</text>
<text text-anchor="start" x="-76.6553" y="9.2" font-family="Times,serif" font-size="14.00">show</text>
<text text-anchor="start" x="-76.6553" y="23.2" font-family="Times,serif" font-size="14.00">show_content</text>
<text text-anchor="start" x="-76.6553" y="37.2" font-family="Times,serif" font-size="14.00">update</text>
<polyline fill="none" stroke="black" points="-84.6553,44 52.6553,44 "/>
<polyline fill="none" stroke="black" points="-84.6553,68 52.6553,68 "/>
<text text-anchor="start" x="-76.6553" y="83.2" font-family="Times,serif" font-size="14.00">_layout</text>
<text text-anchor="start" x="-76.6553" y="97.2" font-family="Times,serif" font-size="14.00">document_params</text>
<text text-anchor="start" x="-76.6553" y="111.2" font-family="Times,serif" font-size="14.00">set_document</text>
</g>
<!-- EduController -->
<g id="node6" class="node"><title>EduController</title>
<path fill="none" stroke="black" d="M-362.048,-18C-362.048,-18 -289.952,-18 -289.952,-18 -283.952,-18 -277.952,-24 -277.952,-30 -277.952,-30 -277.952,-96 -277.952,-96 -277.952,-102 -283.952,-108 -289.952,-108 -289.952,-108 -362.048,-108 -362.048,-108 -368.048,-108 -374.048,-102 -374.048,-96 -374.048,-96 -374.048,-30 -374.048,-30 -374.048,-24 -368.048,-18 -362.048,-18"/>
<text text-anchor="middle" x="-326" y="-92.8" font-family="Times,serif" font-size="14.00">EduController</text>
<polyline fill="none" stroke="black" points="-374.048,-86 -277.952,-86 "/>
<text text-anchor="start" x="-366.048" y="-70.8" font-family="Times,serif" font-size="14.00">index</text>
<polyline fill="none" stroke="black" points="-374.048,-64 -277.952,-64 "/>
<polyline fill="none" stroke="black" points="-374.048,-40 -277.952,-40 "/>
<text text-anchor="start" x="-366.048" y="-24.8" font-family="Times,serif" font-size="14.00">_layout</text>
</g>
<!-- PersonsController -->
<g id="node7" class="node"><title>PersonsController</title>
<path fill="none" stroke="black" d="M29.4482,-375C29.4482,-375 122.552,-375 122.552,-375 128.552,-375 134.552,-381 134.552,-387 134.552,-387 134.552,-467 134.552,-467 134.552,-473 128.552,-479 122.552,-479 122.552,-479 29.4482,-479 29.4482,-479 23.4482,-479 17.4482,-473 17.4482,-467 17.4482,-467 17.4482,-387 17.4482,-387 17.4482,-381 23.4482,-375 29.4482,-375"/>
<text text-anchor="middle" x="76" y="-463.8" font-family="Times,serif" font-size="14.00">PersonsController</text>
<polyline fill="none" stroke="black" points="17.4482,-457 134.552,-457 "/>
<text text-anchor="start" x="25.4482" y="-441.8" font-family="Times,serif" font-size="14.00">profile</text>
<text text-anchor="start" x="25.4482" y="-427.8" font-family="Times,serif" font-size="14.00">test_output</text>
<polyline fill="none" stroke="black" points="17.4482,-421 134.552,-421 "/>
<polyline fill="none" stroke="black" points="17.4482,-397 134.552,-397 "/>
<text text-anchor="start" x="25.4482" y="-381.8" font-family="Times,serif" font-size="14.00">_layout</text>
</g>
<!-- StudentGroupsController -->
<g id="node8" class="node"><title>StudentGroupsController</title>
<path fill="none" stroke="black" d="M-89.7725,-137C-89.7725,-137 43.7725,-137 43.7725,-137 49.7725,-137 55.7725,-143 55.7725,-149 55.7725,-149 55.7725,-327 55.7725,-327 55.7725,-333 49.7725,-339 43.7725,-339 43.7725,-339 -89.7725,-339 -89.7725,-339 -95.7725,-339 -101.772,-333 -101.772,-327 -101.772,-327 -101.772,-149 -101.772,-149 -101.772,-143 -95.7725,-137 -89.7725,-137"/>
<text text-anchor="middle" x="-23" y="-323.8" font-family="Times,serif" font-size="14.00">StudentGroupsController</text>
<polyline fill="none" stroke="black" points="-101.772,-317 55.7725,-317 "/>
<text text-anchor="start" x="-93.7725" y="-301.8" font-family="Times,serif" font-size="14.00">create</text>
<text text-anchor="start" x="-93.7725" y="-287.8" font-family="Times,serif" font-size="14.00">destroy</text>
<text text-anchor="start" x="-93.7725" y="-273.8" font-family="Times,serif" font-size="14.00">edit</text>
<text text-anchor="start" x="-93.7725" y="-259.8" font-family="Times,serif" font-size="14.00">index</text>
<text text-anchor="start" x="-93.7725" y="-245.8" font-family="Times,serif" font-size="14.00">new</text>
<text text-anchor="start" x="-93.7725" y="-231.8" font-family="Times,serif" font-size="14.00">show</text>
<text text-anchor="start" x="-93.7725" y="-217.8" font-family="Times,serif" font-size="14.00">update</text>
<polyline fill="none" stroke="black" points="-101.772,-211 55.7725,-211 "/>
<polyline fill="none" stroke="black" points="-101.772,-187 55.7725,-187 "/>
<text text-anchor="start" x="-93.7725" y="-171.8" font-family="Times,serif" font-size="14.00">_layout</text>
<text text-anchor="start" x="-93.7725" y="-157.8" font-family="Times,serif" font-size="14.00">set_student_group</text>
<text text-anchor="start" x="-93.7725" y="-143.8" font-family="Times,serif" font-size="14.00">student_group_params</text>
</g>
<!-- StudentsController -->
<g id="node9" class="node"><title>StudentsController</title>
<path fill="none" stroke="black" d="M182.114,-171C182.114,-171 279.886,-171 279.886,-171 285.886,-171 291.886,-177 291.886,-183 291.886,-183 291.886,-375 291.886,-375 291.886,-381 285.886,-387 279.886,-387 279.886,-387 182.114,-387 182.114,-387 176.114,-387 170.114,-381 170.114,-375 170.114,-375 170.114,-183 170.114,-183 170.114,-177 176.114,-171 182.114,-171"/>
<text text-anchor="middle" x="231" y="-371.8" font-family="Times,serif" font-size="14.00">StudentsController</text>
<polyline fill="none" stroke="black" points="170.114,-365 291.886,-365 "/>
<text text-anchor="start" x="178.114" y="-349.8" font-family="Times,serif" font-size="14.00">create</text>
<text text-anchor="start" x="178.114" y="-335.8" font-family="Times,serif" font-size="14.00">destroy</text>
<text text-anchor="start" x="178.114" y="-321.8" font-family="Times,serif" font-size="14.00">edit</text>
<text text-anchor="start" x="178.114" y="-307.8" font-family="Times,serif" font-size="14.00">import</text>
<text text-anchor="start" x="178.114" y="-293.8" font-family="Times,serif" font-size="14.00">index</text>
<text text-anchor="start" x="178.114" y="-279.8" font-family="Times,serif" font-size="14.00">new</text>
<text text-anchor="start" x="178.114" y="-265.8" font-family="Times,serif" font-size="14.00">show</text>
<text text-anchor="start" x="178.114" y="-251.8" font-family="Times,serif" font-size="14.00">update</text>
<polyline fill="none" stroke="black" points="170.114,-245 291.886,-245 "/>
<polyline fill="none" stroke="black" points="170.114,-221 291.886,-221 "/>
<text text-anchor="start" x="178.114" y="-205.8" font-family="Times,serif" font-size="14.00">_layout</text>
<text text-anchor="start" x="178.114" y="-191.8" font-family="Times,serif" font-size="14.00">set_student</text>
<text text-anchor="start" x="178.114" y="-177.8" font-family="Times,serif" font-size="14.00">student_params</text>
</g>
<!-- SubjectsController -->
<g id="node10" class="node"><title>SubjectsController</title>
<path fill="none" stroke="black" d="M-226.493,101C-226.493,101 -129.507,101 -129.507,101 -123.507,101 -117.507,95 -117.507,89 -117.507,89 -117.507,-89 -117.507,-89 -117.507,-95 -123.507,-101 -129.507,-101 -129.507,-101 -226.493,-101 -226.493,-101 -232.493,-101 -238.493,-95 -238.493,-89 -238.493,-89 -238.493,89 -238.493,89 -238.493,95 -232.493,101 -226.493,101"/>
<text text-anchor="middle" x="-178" y="-85.8" font-family="Times,serif" font-size="14.00">SubjectsController</text>
<polyline fill="none" stroke="black" points="-238.493,-79 -117.507,-79 "/>
<text text-anchor="start" x="-230.493" y="-63.8" font-family="Times,serif" font-size="14.00">create</text>
<text text-anchor="start" x="-230.493" y="-49.8" font-family="Times,serif" font-size="14.00">destroy</text>
<text text-anchor="start" x="-230.493" y="-35.8" font-family="Times,serif" font-size="14.00">edit</text>
<text text-anchor="start" x="-230.493" y="-21.8" font-family="Times,serif" font-size="14.00">index</text>
<text text-anchor="start" x="-230.493" y="-7.8" font-family="Times,serif" font-size="14.00">new</text>
<text text-anchor="start" x="-230.493" y="6.2" font-family="Times,serif" font-size="14.00">show</text>
<text text-anchor="start" x="-230.493" y="20.2" font-family="Times,serif" font-size="14.00">update</text>
<polyline fill="none" stroke="black" points="-238.493,27 -117.507,27 "/>
<polyline fill="none" stroke="black" points="-238.493,51 -117.507,51 "/>
<text text-anchor="start" x="-230.493" y="66.2" font-family="Times,serif" font-size="14.00">_layout</text>
<text text-anchor="start" x="-230.493" y="80.2" font-family="Times,serif" font-size="14.00">set_subject</text>
<text text-anchor="start" x="-230.493" y="94.2" font-family="Times,serif" font-size="14.00">subject_params</text>
</g>
<!-- Users::ConfirmationsController -->
<g id="node11" class="node"><title>Users::ConfirmationsController</title>
<path fill="none" stroke="black" d="M12.3379,322C12.3379,322 181.662,322 181.662,322 187.662,322 193.662,316 193.662,310 193.662,310 193.662,242 193.662,242 193.662,236 187.662,230 181.662,230 181.662,230 12.3379,230 12.3379,230 6.33789,230 0.337891,236 0.337891,242 0.337891,242 0.337891,310 0.337891,310 0.337891,316 6.33789,322 12.3379,322"/>
<text text-anchor="middle" x="97" y="245.2" font-family="Times,serif" font-size="14.00">Users::ConfirmationsController</text>
<polyline fill="none" stroke="black" points="0.337891,252 193.662,252 "/>
<polyline fill="none" stroke="black" points="0.337891,276 193.662,276 "/>
<polyline fill="none" stroke="black" points="0.337891,300 193.662,300 "/>
<text text-anchor="start" x="8.33789" y="315.2" font-family="Times,serif" font-size="14.00">_layout</text>
</g>
<!-- Users::OmniauthCallbacksController -->
<g id="node12" class="node"><title>Users::OmniauthCallbacksController</title>
<path fill="none" stroke="black" d="M96.7964,203C96.7964,203 297.204,203 297.204,203 303.204,203 309.204,197 309.204,191 309.204,191 309.204,123 309.204,123 309.204,117 303.204,111 297.204,111 297.204,111 96.7964,111 96.7964,111 90.7964,111 84.7964,117 84.7964,123 84.7964,123 84.7964,191 84.7964,191 84.7964,197 90.7964,203 96.7964,203"/>
<text text-anchor="middle" x="197" y="126.2" font-family="Times,serif" font-size="14.00">Users::OmniauthCallbacksController</text>
<polyline fill="none" stroke="black" points="84.7964,133 309.204,133 "/>
<polyline fill="none" stroke="black" points="84.7964,157 309.204,157 "/>
<polyline fill="none" stroke="black" points="84.7964,181 309.204,181 "/>
<text text-anchor="start" x="92.7964" y="196.2" font-family="Times,serif" font-size="14.00">_layout</text>
</g>
<!-- Users::PasswordsController -->
<g id="node13" class="node"><title>Users::PasswordsController</title>
<path fill="none" stroke="black" d="M-294.162,-137C-294.162,-137 -145.838,-137 -145.838,-137 -139.838,-137 -133.838,-143 -133.838,-149 -133.838,-149 -133.838,-217 -133.838,-217 -133.838,-223 -139.838,-229 -145.838,-229 -145.838,-229 -294.162,-229 -294.162,-229 -300.162,-229 -306.162,-223 -306.162,-217 -306.162,-217 -306.162,-149 -306.162,-149 -306.162,-143 -300.162,-137 -294.162,-137"/>
<text text-anchor="middle" x="-220" y="-213.8" font-family="Times,serif" font-size="14.00">Users::PasswordsController</text>
<polyline fill="none" stroke="black" points="-306.162,-207 -133.838,-207 "/>
<polyline fill="none" stroke="black" points="-306.162,-183 -133.838,-183 "/>
<polyline fill="none" stroke="black" points="-306.162,-159 -133.838,-159 "/>
<text text-anchor="start" x="-298.162" y="-143.8" font-family="Times,serif" font-size="14.00">_layout</text>
</g>
<!-- Users::RegistrationsController -->
<g id="node14" class="node"><title>Users::RegistrationsController</title>
<path fill="none" stroke="black" d="M-242.545,254C-242.545,254 -79.4551,254 -79.4551,254 -73.4551,254 -67.4551,248 -67.4551,242 -67.4551,242 -67.4551,162 -67.4551,162 -67.4551,156 -73.4551,150 -79.4551,150 -79.4551,150 -242.545,150 -242.545,150 -248.545,150 -254.545,156 -254.545,162 -254.545,162 -254.545,242 -254.545,242 -254.545,248 -248.545,254 -242.545,254"/>
<text text-anchor="middle" x="-161" y="165.2" font-family="Times,serif" font-size="14.00">Users::RegistrationsController</text>
<polyline fill="none" stroke="black" points="-254.545,172 -67.4551,172 "/>
<text text-anchor="start" x="-246.545" y="187.2" font-family="Times,serif" font-size="14.00">create</text>
<text text-anchor="start" x="-246.545" y="201.2" font-family="Times,serif" font-size="14.00">new</text>
<polyline fill="none" stroke="black" points="-254.545,208 -67.4551,208 "/>
<polyline fill="none" stroke="black" points="-254.545,232 -67.4551,232 "/>
<text text-anchor="start" x="-246.545" y="247.2" font-family="Times,serif" font-size="14.00">_layout</text>
</g>
<!-- Users::SessionsController -->
<g id="node15" class="node"><title>Users::SessionsController</title>
<path fill="none" stroke="black" d="M233.279,322C233.279,322 370.721,322 370.721,322 376.721,322 382.721,316 382.721,310 382.721,310 382.721,242 382.721,242 382.721,236 376.721,230 370.721,230 370.721,230 233.279,230 233.279,230 227.279,230 221.279,236 221.279,242 221.279,242 221.279,310 221.279,310 221.279,316 227.279,322 233.279,322"/>
<text text-anchor="middle" x="302" y="245.2" font-family="Times,serif" font-size="14.00">Users::SessionsController</text>
<polyline fill="none" stroke="black" points="221.279,252 382.721,252 "/>
<polyline fill="none" stroke="black" points="221.279,276 382.721,276 "/>
<polyline fill="none" stroke="black" points="221.279,300 382.721,300 "/>
<text text-anchor="start" x="229.279" y="315.2" font-family="Times,serif" font-size="14.00">_layout</text>
</g>
<!-- Users::UnlocksController -->
<g id="node16" class="node"><title>Users::UnlocksController</title>
<path fill="none" stroke="black" d="M352.065,203C352.065,203 487.935,203 487.935,203 493.935,203 499.935,197 499.935,191 499.935,191 499.935,123 499.935,123 499.935,117 493.935,111 487.935,111 487.935,111 352.065,111 352.065,111 346.065,111 340.065,117 340.065,123 340.065,123 340.065,191 340.065,191 340.065,197 346.065,203 352.065,203"/>
<text text-anchor="middle" x="420" y="126.2" font-family="Times,serif" font-size="14.00">Users::UnlocksController</text>
<polyline fill="none" stroke="black" points="340.065,133 499.935,133 "/>
<polyline fill="none" stroke="black" points="340.065,157 499.935,157 "/>
<polyline fill="none" stroke="black" points="340.065,181 499.935,181 "/>
<text text-anchor="start" x="348.065" y="196.2" font-family="Times,serif" font-size="14.00">_layout</text>
</g>
<!-- WelcomeController -->
<g id="node17" class="node"><title>WelcomeController</title>
<path fill="none" stroke="black" d="M-362.033,373C-362.033,373 -259.967,373 -259.967,373 -253.967,373 -247.967,367 -247.967,361 -247.967,361 -247.967,293 -247.967,293 -247.967,287 -253.967,281 -259.967,281 -259.967,281 -362.033,281 -362.033,281 -368.033,281 -374.033,287 -374.033,293 -374.033,293 -374.033,361 -374.033,361 -374.033,367 -368.033,373 -362.033,373"/>
<text text-anchor="middle" x="-311" y="296.2" font-family="Times,serif" font-size="14.00">WelcomeController</text>
<polyline fill="none" stroke="black" points="-374.033,303 -247.967,303 "/>
<polyline fill="none" stroke="black" points="-374.033,327 -247.967,327 "/>
<polyline fill="none" stroke="black" points="-374.033,351 -247.967,351 "/>
<text text-anchor="start" x="-366.033" y="366.2" font-family="Times,serif" font-size="14.00">_layout</text>
</g>
<!-- WsJobsController -->
<g id="node18" class="node"><title>WsJobsController</title>
<path fill="none" stroke="black" d="M-242.552,-256C-242.552,-256 -149.448,-256 -149.448,-256 -143.448,-256 -137.448,-262 -137.448,-268 -137.448,-268 -137.448,-446 -137.448,-446 -137.448,-452 -143.448,-458 -149.448,-458 -149.448,-458 -242.552,-458 -242.552,-458 -248.552,-458 -254.552,-452 -254.552,-446 -254.552,-446 -254.552,-268 -254.552,-268 -254.552,-262 -248.552,-256 -242.552,-256"/>
<text text-anchor="middle" x="-196" y="-442.8" font-family="Times,serif" font-size="14.00">WsJobsController</text>
<polyline fill="none" stroke="black" points="-254.552,-436 -137.448,-436 "/>
<text text-anchor="start" x="-246.552" y="-420.8" font-family="Times,serif" font-size="14.00">create</text>
<text text-anchor="start" x="-246.552" y="-406.8" font-family="Times,serif" font-size="14.00">destroy</text>
<text text-anchor="start" x="-246.552" y="-392.8" font-family="Times,serif" font-size="14.00">edit</text>
<text text-anchor="start" x="-246.552" y="-378.8" font-family="Times,serif" font-size="14.00">index</text>
<text text-anchor="start" x="-246.552" y="-364.8" font-family="Times,serif" font-size="14.00">new</text>
<text text-anchor="start" x="-246.552" y="-350.8" font-family="Times,serif" font-size="14.00">show</text>
<text text-anchor="start" x="-246.552" y="-336.8" font-family="Times,serif" font-size="14.00">update</text>
<polyline fill="none" stroke="black" points="-254.552,-330 -137.448,-330 "/>
<polyline fill="none" stroke="black" points="-254.552,-306 -137.448,-306 "/>
<text text-anchor="start" x="-246.552" y="-290.8" font-family="Times,serif" font-size="14.00">_layout</text>
<text text-anchor="start" x="-246.552" y="-276.8" font-family="Times,serif" font-size="14.00">set_ws_job</text>
<text text-anchor="start" x="-246.552" y="-262.8" font-family="Times,serif" font-size="14.00">ws_job_params</text>
</g>
<!-- WsMethodsController -->
<g id="node19" class="node"><title>WsMethodsController</title>
<path fill="none" stroke="black" d="M97.3965,84C97.3965,84 214.604,84 214.604,84 220.604,84 226.604,78 226.604,72 226.604,72 226.604,-120 226.604,-120 226.604,-126 220.604,-132 214.604,-132 214.604,-132 97.3965,-132 97.3965,-132 91.3965,-132 85.3965,-126 85.3965,-120 85.3965,-120 85.3965,72 85.3965,72 85.3965,78 91.3965,84 97.3965,84"/>
<text text-anchor="middle" x="156" y="-116.8" font-family="Times,serif" font-size="14.00">WsMethodsController</text>
<polyline fill="none" stroke="black" points="85.3965,-110 226.604,-110 "/>
<text text-anchor="start" x="93.3965" y="-94.8" font-family="Times,serif" font-size="14.00">create</text>
<text text-anchor="start" x="93.3965" y="-80.8" font-family="Times,serif" font-size="14.00">destroy</text>
<text text-anchor="start" x="93.3965" y="-66.8" font-family="Times,serif" font-size="14.00">edit</text>
<text text-anchor="start" x="93.3965" y="-52.8" font-family="Times,serif" font-size="14.00">index</text>
<text text-anchor="start" x="93.3965" y="-38.8" font-family="Times,serif" font-size="14.00">new</text>
<text text-anchor="start" x="93.3965" y="-24.8" font-family="Times,serif" font-size="14.00">show</text>
<text text-anchor="start" x="93.3965" y="-10.8" font-family="Times,serif" font-size="14.00">test</text>
<text text-anchor="start" x="93.3965" y="3.2" font-family="Times,serif" font-size="14.00">update</text>
<polyline fill="none" stroke="black" points="85.3965,10 226.604,10 "/>
<polyline fill="none" stroke="black" points="85.3965,34 226.604,34 "/>
<text text-anchor="start" x="93.3965" y="49.2" font-family="Times,serif" font-size="14.00">_layout</text>
<text text-anchor="start" x="93.3965" y="63.2" font-family="Times,serif" font-size="14.00">set_ws_method</text>
<text text-anchor="start" x="93.3965" y="77.2" font-family="Times,serif" font-size="14.00">ws_method_params</text>
</g>
</g>
</svg>
