<?xml version="1.0" encoding="UTF-8" standalone="no"?>
<!DOCTYPE svg PUBLIC "-//W3C//DTD SVG 1.1//EN"
 "http://www.w3.org/Graphics/SVG/1.1/DTD/svg11.dtd">
<!-- Generated by graphviz version 2.38.0 (20140413.2041)
 -->
<!-- Title: models_diagram Pages: 1 -->
<svg width="1554pt" height="526pt"
 viewBox="0.00 0.00 1554.31 526.00" xmlns="http://www.w3.org/2000/svg" xmlns:xlink="http://www.w3.org/1999/xlink">
<g id="graph0" class="graph" transform="scale(1 1) rotate(0) translate(4 522)">
<title>models_diagram</title>
<polygon fill="none" stroke="none" points="-4,4 -4,-522 1550.31,-522 1550.31,4 -4,4"/>
<!-- _diagram_info -->
<g id="node1" class="node"><title>_diagram_info</title>
<text text-anchor="start" x="8" y="-391.6" font-family="Times,serif" font-size="13.00">Models diagram</text>
<text text-anchor="start" x="8" y="-378.6" font-family="Times,serif" font-size="13.00">Date: Nov 14 2015 &#45; 23:09</text>
<text text-anchor="start" x="8" y="-365.6" font-family="Times,serif" font-size="13.00">Migration version: 20151031143344</text>
<text text-anchor="start" x="8" y="-352.6" font-family="Times,serif" font-size="13.00">Generated by RailRoady 1.4.1</text>
<text text-anchor="start" x="8" y="-339.6" font-family="Times,serif" font-size="13.00">http://railroady.prestonlee.com</text>
</g>
<!-- Ability -->
<g id="node2" class="node"><title>Ability</title>
<polygon fill="none" stroke="black" points="224.615,-347.5 224.615,-391.5 280.284,-391.5 280.284,-347.5 224.615,-347.5"/>
<text text-anchor="middle" x="252.45" y="-376.3" font-family="Times,serif" font-size="14.00">Ability</text>
<polyline fill="none" stroke="black" points="224.615,-369.5 280.284,-369.5 "/>
<text text-anchor="middle" x="252.45" y="-354.3" font-family="Times,serif" font-size="14.00"> </text>
</g>
<!-- Description -->
<g id="node3" class="node"><title>Description</title>
<path fill="none" stroke="black" d="M219.587,-21.5C219.587,-21.5 443.312,-21.5 443.312,-21.5 449.312,-21.5 455.312,-27.5 455.312,-33.5 455.312,-33.5 455.312,-137.5 455.312,-137.5 455.312,-143.5 449.312,-149.5 443.312,-149.5 443.312,-149.5 219.587,-149.5 219.587,-149.5 213.587,-149.5 207.587,-143.5 207.587,-137.5 207.587,-137.5 207.587,-33.5 207.587,-33.5 207.587,-27.5 213.587,-21.5 219.587,-21.5"/>
<text text-anchor="middle" x="331.45" y="-134.3" font-family="Times,serif" font-size="14.00">Description</text>
<polyline fill="none" stroke="black" points="207.587,-127.5 455.312,-127.5 "/>
<text text-anchor="start" x="215.587" y="-112.3" font-family="Times,serif" font-size="14.00">id :integer</text>
<text text-anchor="start" x="215.587" y="-98.3" font-family="Times,serif" font-size="14.00">descr :character varying</text>
<text text-anchor="start" x="215.587" y="-84.3" font-family="Times,serif" font-size="14.00">locale :character varying</text>
<text text-anchor="start" x="215.587" y="-70.3" font-family="Times,serif" font-size="14.00">rec_id :integer</text>
<text text-anchor="start" x="215.587" y="-56.3" font-family="Times,serif" font-size="14.00">rec_type :character varying</text>
<text text-anchor="start" x="215.587" y="-42.3" font-family="Times,serif" font-size="14.00">created_at :timestamp without time zone</text>
<text text-anchor="start" x="215.587" y="-28.3" font-family="Times,serif" font-size="14.00">updated_at :timestamp without time zone</text>
</g>
<!-- Document -->
<g id="node4" class="node"><title>Document</title>
<path fill="none" stroke="black" d="M1044.59,-305.5C1044.59,-305.5 1268.31,-305.5 1268.31,-305.5 1274.31,-305.5 1280.31,-311.5 1280.31,-317.5 1280.31,-317.5 1280.31,-421.5 1280.31,-421.5 1280.31,-427.5 1274.31,-433.5 1268.31,-433.5 1268.31,-433.5 1044.59,-433.5 1044.59,-433.5 1038.59,-433.5 1032.59,-427.5 1032.59,-421.5 1032.59,-421.5 1032.59,-317.5 1032.59,-317.5 1032.59,-311.5 1038.59,-305.5 1044.59,-305.5"/>
<text text-anchor="middle" x="1156.45" y="-418.3" font-family="Times,serif" font-size="14.00">Document</text>
<polyline fill="none" stroke="black" points="1032.59,-411.5 1280.31,-411.5 "/>
<text text-anchor="start" x="1040.59" y="-396.3" font-family="Times,serif" font-size="14.00">id :integer</text>
<text text-anchor="start" x="1040.59" y="-382.3" font-family="Times,serif" font-size="14.00">name :character varying</text>
<text text-anchor="start" x="1040.59" y="-368.3" font-family="Times,serif" font-size="14.00">filename :character varying</text>
<text text-anchor="start" x="1040.59" y="-354.3" font-family="Times,serif" font-size="14.00">content_type :character varying</text>
<text text-anchor="start" x="1040.59" y="-340.3" font-family="Times,serif" font-size="14.00">file_contents :bytea</text>
<text text-anchor="start" x="1040.59" y="-326.3" font-family="Times,serif" font-size="14.00">created_at :timestamp without time zone</text>
<text text-anchor="start" x="1040.59" y="-312.3" font-family="Times,serif" font-size="14.00">updated_at :timestamp without time zone</text>
</g>
<!-- Subject -->
<g id="node7" class="node"><title>Subject</title>
<path fill="none" stroke="black" d="M1044.59,-42.5C1044.59,-42.5 1268.31,-42.5 1268.31,-42.5 1274.31,-42.5 1280.31,-48.5 1280.31,-54.5 1280.31,-54.5 1280.31,-116.5 1280.31,-116.5 1280.31,-122.5 1274.31,-128.5 1268.31,-128.5 1268.31,-128.5 1044.59,-128.5 1044.59,-128.5 1038.59,-128.5 1032.59,-122.5 1032.59,-116.5 1032.59,-116.5 1032.59,-54.5 1032.59,-54.5 1032.59,-48.5 1038.59,-42.5 1044.59,-42.5"/>
<text text-anchor="middle" x="1156.45" y="-113.3" font-family="Times,serif" font-size="14.00">Subject</text>
<polyline fill="none" stroke="black" points="1032.59,-106.5 1280.31,-106.5 "/>
<text text-anchor="start" x="1040.59" y="-91.3" font-family="Times,serif" font-size="14.00">id :integer</text>
<text text-anchor="start" x="1040.59" y="-77.3" font-family="Times,serif" font-size="14.00">name :character varying</text>
<text text-anchor="start" x="1040.59" y="-63.3" font-family="Times,serif" font-size="14.00">created_at :timestamp without time zone</text>
<text text-anchor="start" x="1040.59" y="-49.3" font-family="Times,serif" font-size="14.00">updated_at :timestamp without time zone</text>
</g>
<!-- Document&#45;&gt;Subject -->
<g id="edge1" class="edge"><title>Document&#45;&gt;Subject</title>
<path fill="none" stroke="#11fdc1" d="M1156.45,-295.19C1156.45,-246.142 1156.45,-182.767 1156.45,-138.786"/>
<polygon fill="#11fdc1" stroke="#11fdc1" points="1156.45,-295.214 1151.95,-305.214 1156.45,-300.214 1156.45,-305.214 1156.45,-305.214 1156.45,-305.214 1156.45,-300.214 1160.95,-305.214 1156.45,-295.214 1156.45,-295.214"/>
<polygon fill="#11fdc1" stroke="#11fdc1" points="1156.45,-138.599 1160.95,-128.599 1156.45,-133.599 1156.45,-128.599 1156.45,-128.599 1156.45,-128.599 1156.45,-133.599 1151.95,-128.599 1156.45,-138.599 1156.45,-138.599"/>
</g>
<!-- Student -->
<g id="node5" class="node"><title>Student</title>
<path fill="none" stroke="black" d="M1310.59,-7.5C1310.59,-7.5 1534.31,-7.5 1534.31,-7.5 1540.31,-7.5 1546.31,-13.5 1546.31,-19.5 1546.31,-19.5 1546.31,-151.5 1546.31,-151.5 1546.31,-157.5 1540.31,-163.5 1534.31,-163.5 1534.31,-163.5 1310.59,-163.5 1310.59,-163.5 1304.59,-163.5 1298.59,-157.5 1298.59,-151.5 1298.59,-151.5 1298.59,-19.5 1298.59,-19.5 1298.59,-13.5 1304.59,-7.5 1310.59,-7.5"/>
<text text-anchor="middle" x="1422.45" y="-148.3" font-family="Times,serif" font-size="14.00">Student</text>
<polyline fill="none" stroke="black" points="1298.59,-141.5 1546.31,-141.5 "/>
<text text-anchor="start" x="1306.59" y="-126.3" font-family="Times,serif" font-size="14.00">id :integer</text>
<text text-anchor="start" x="1306.59" y="-112.3" font-family="Times,serif" font-size="14.00">name :character varying</text>
<text text-anchor="start" x="1306.59" y="-98.3" font-family="Times,serif" font-size="14.00">mname :character varying</text>
<text text-anchor="start" x="1306.59" y="-84.3" font-family="Times,serif" font-size="14.00">lname :character varying</text>
<text text-anchor="start" x="1306.59" y="-70.3" font-family="Times,serif" font-size="14.00">serial :character varying</text>
<text text-anchor="start" x="1306.59" y="-56.3" font-family="Times,serif" font-size="14.00">email :character varying</text>
<text text-anchor="start" x="1306.59" y="-42.3" font-family="Times,serif" font-size="14.00">student_group_id :integer</text>
<text text-anchor="start" x="1306.59" y="-28.3" font-family="Times,serif" font-size="14.00">created_at :timestamp without time zone</text>
<text text-anchor="start" x="1306.59" y="-14.3" font-family="Times,serif" font-size="14.00">updated_at :timestamp without time zone</text>
</g>
<!-- StudentGroup -->
<g id="node6" class="node"><title>StudentGroup</title>
<path fill="none" stroke="black" d="M1310.59,-319.5C1310.59,-319.5 1534.31,-319.5 1534.31,-319.5 1540.31,-319.5 1546.31,-325.5 1546.31,-331.5 1546.31,-331.5 1546.31,-407.5 1546.31,-407.5 1546.31,-413.5 1540.31,-419.5 1534.31,-419.5 1534.31,-419.5 1310.59,-419.5 1310.59,-419.5 1304.59,-419.5 1298.59,-413.5 1298.59,-407.5 1298.59,-407.5 1298.59,-331.5 1298.59,-331.5 1298.59,-325.5 1304.59,-319.5 1310.59,-319.5"/>
<text text-anchor="middle" x="1422.45" y="-404.3" font-family="Times,serif" font-size="14.00">StudentGroup</text>
<polyline fill="none" stroke="black" points="1298.59,-397.5 1546.31,-397.5 "/>
<text text-anchor="start" x="1306.59" y="-382.3" font-family="Times,serif" font-size="14.00">id :integer</text>
<text text-anchor="start" x="1306.59" y="-368.3" font-family="Times,serif" font-size="14.00">name :character varying</text>
<text text-anchor="start" x="1306.59" y="-354.3" font-family="Times,serif" font-size="14.00">year :integer</text>
<text text-anchor="start" x="1306.59" y="-340.3" font-family="Times,serif" font-size="14.00">created_at :timestamp without time zone</text>
<text text-anchor="start" x="1306.59" y="-326.3" font-family="Times,serif" font-size="14.00">updated_at :timestamp without time zone</text>
</g>
<!-- StudentGroup&#45;&gt;Student -->
<g id="edge2" class="edge"><title>StudentGroup&#45;&gt;Student</title>
<path fill="none" stroke="#42247e" d="M1422.45,-311.369C1422.45,-271.86 1422.45,-218.55 1422.45,-173.753"/>
<ellipse fill="none" stroke="#42247e" cx="1422.45" cy="-315.379" rx="4" ry="4"/>
<polygon fill="#42247e" stroke="#42247e" points="1422.45,-173.744 1426.95,-163.744 1422.45,-168.744 1422.45,-163.744 1422.45,-163.744 1422.45,-163.744 1422.45,-168.744 1417.95,-163.744 1422.45,-173.744 1422.45,-173.744"/>
</g>
<!-- User -->
<g id="node8" class="node"><title>User</title>
<path fill="none" stroke="black" d="M665.815,-221.5C665.815,-221.5 961.084,-221.5 961.084,-221.5 967.084,-221.5 973.084,-227.5 973.084,-233.5 973.084,-233.5 973.084,-505.5 973.084,-505.5 973.084,-511.5 967.084,-517.5 961.084,-517.5 961.084,-517.5 665.815,-517.5 665.815,-517.5 659.815,-517.5 653.815,-511.5 653.815,-505.5 653.815,-505.5 653.815,-233.5 653.815,-233.5 653.815,-227.5 659.815,-221.5 665.815,-221.5"/>
<text text-anchor="middle" x="813.45" y="-502.3" font-family="Times,serif" font-size="14.00">User</text>
<polyline fill="none" stroke="black" points="653.815,-495.5 973.084,-495.5 "/>
<text text-anchor="start" x="661.815" y="-480.3" font-family="Times,serif" font-size="14.00">id :integer</text>
<text text-anchor="start" x="661.815" y="-466.3" font-family="Times,serif" font-size="14.00">email :character varying</text>
<text text-anchor="start" x="661.815" y="-452.3" font-family="Times,serif" font-size="14.00">encrypted_password :character varying</text>
<text text-anchor="start" x="661.815" y="-438.3" font-family="Times,serif" font-size="14.00">reset_password_token :character varying</text>
<text text-anchor="start" x="661.815" y="-424.3" font-family="Times,serif" font-size="14.00">reset_password_sent_at :timestamp without time zone</text>
<text text-anchor="start" x="661.815" y="-410.3" font-family="Times,serif" font-size="14.00">remember_created_at :timestamp without time zone</text>
<text text-anchor="start" x="661.815" y="-396.3" font-family="Times,serif" font-size="14.00">sign_in_count :integer</text>
<text text-anchor="start" x="661.815" y="-382.3" font-family="Times,serif" font-size="14.00">current_sign_in_at :timestamp without time zone</text>
<text text-anchor="start" x="661.815" y="-368.3" font-family="Times,serif" font-size="14.00">last_sign_in_at :timestamp without time zone</text>
<text text-anchor="start" x="661.815" y="-354.3" font-family="Times,serif" font-size="14.00">current_sign_in_ip :inet</text>
<text text-anchor="start" x="661.815" y="-340.3" font-family="Times,serif" font-size="14.00">last_sign_in_ip :inet</text>
<text text-anchor="start" x="661.815" y="-326.3" font-family="Times,serif" font-size="14.00">created_at :timestamp without time zone</text>
<text text-anchor="start" x="661.815" y="-312.3" font-family="Times,serif" font-size="14.00">updated_at :timestamp without time zone</text>
<text text-anchor="start" x="661.815" y="-298.3" font-family="Times,serif" font-size="14.00">confirmation_token :character varying</text>
<text text-anchor="start" x="661.815" y="-284.3" font-family="Times,serif" font-size="14.00">confirmed_at :timestamp without time zone</text>
<text text-anchor="start" x="661.815" y="-270.3" font-family="Times,serif" font-size="14.00">confirmation_sent_at :timestamp without time zone</text>
<text text-anchor="start" x="661.815" y="-256.3" font-family="Times,serif" font-size="14.00">unconfirmed_email :character varying</text>
<text text-anchor="start" x="661.815" y="-242.3" font-family="Times,serif" font-size="14.00">authentication_token :character varying</text>
<text text-anchor="start" x="661.815" y="-228.3" font-family="Times,serif" font-size="14.00">numjobs :integer</text>
</g>
<!-- WsJob -->
<g id="node9" class="node"><title>WsJob</title>
<path fill="none" stroke="black" d="M485.587,-0.5C485.587,-0.5 709.312,-0.5 709.312,-0.5 715.312,-0.5 721.312,-6.5 721.312,-12.5 721.312,-12.5 721.312,-158.5 721.312,-158.5 721.312,-164.5 715.312,-170.5 709.312,-170.5 709.312,-170.5 485.587,-170.5 485.587,-170.5 479.587,-170.5 473.587,-164.5 473.587,-158.5 473.587,-158.5 473.587,-12.5 473.587,-12.5 473.587,-6.5 479.587,-0.5 485.587,-0.5"/>
<text text-anchor="middle" x="597.45" y="-155.3" font-family="Times,serif" font-size="14.00">WsJob</text>
<polyline fill="none" stroke="black" points="473.587,-148.5 721.312,-148.5 "/>
<text text-anchor="start" x="481.587" y="-133.3" font-family="Times,serif" font-size="14.00">id :integer</text>
<text text-anchor="start" x="481.587" y="-119.3" font-family="Times,serif" font-size="14.00">input :text</text>
<text text-anchor="start" x="481.587" y="-105.3" font-family="Times,serif" font-size="14.00">output :text</text>
<text text-anchor="start" x="481.587" y="-91.3" font-family="Times,serif" font-size="14.00">ws_method_id :integer</text>
<text text-anchor="start" x="481.587" y="-77.3" font-family="Times,serif" font-size="14.00">user_id :integer</text>
<text text-anchor="start" x="481.587" y="-63.3" font-family="Times,serif" font-size="14.00">created_at :timestamp without time zone</text>
<text text-anchor="start" x="481.587" y="-49.3" font-family="Times,serif" font-size="14.00">updated_at :timestamp without time zone</text>
<text text-anchor="start" x="481.587" y="-35.3" font-family="Times,serif" font-size="14.00">error_code :integer</text>
<text text-anchor="start" x="481.587" y="-21.3" font-family="Times,serif" font-size="14.00">for_check :integer</text>
<text text-anchor="start" x="481.587" y="-7.3" font-family="Times,serif" font-size="14.00">do_check :integer</text>
</g>
<!-- User&#45;&gt;WsJob -->
<g id="edge3" class="edge"><title>User&#45;&gt;WsJob</title>
<path fill="none" stroke="#336316" d="M695.724,-214.803C686.297,-202.494 676.968,-190.316 668.03,-178.647"/>
<ellipse fill="none" stroke="#336316" cx="698.273" cy="-218.13" rx="4.00002" ry="4.00002"/>
<polygon fill="#336316" stroke="#336316" points="667.989,-178.593 665.481,-167.918 664.949,-174.624 661.908,-170.654 661.908,-170.654 661.908,-170.654 664.949,-174.624 658.336,-173.391 667.989,-178.593 667.989,-178.593"/>
</g>
<!-- Royce::Connector -->
<g id="node11" class="node"><title>Royce::Connector</title>
<ellipse fill="none" stroke="black" cx="813.45" cy="-85.5" rx="74.4016" ry="18"/>
<text text-anchor="middle" x="813.45" y="-81.3" font-family="Times,serif" font-size="14.00">Royce::Connector</text>
</g>
<!-- User&#45;&gt;Royce::Connector -->
<g id="edge4" class="edge"><title>User&#45;&gt;Royce::Connector</title>
<path fill="none" stroke="#dbe027" d="M813.45,-213.285C813.45,-174.753 813.45,-137.651 813.45,-113.648"/>
<ellipse fill="none" stroke="#dbe027" cx="813.45" cy="-217.305" rx="4" ry="4"/>
<polygon fill="#dbe027" stroke="#dbe027" points="813.45,-113.583 817.95,-103.583 813.45,-108.583 813.45,-103.583 813.45,-103.583 813.45,-103.583 813.45,-108.583 808.95,-103.583 813.45,-113.583 813.45,-113.583"/>
<text text-anchor="middle" x="858.153" y="-191.8" font-family="Times,serif" font-size="14.00">role_connectors</text>
</g>
<!-- Royce::Role -->
<g id="node12" class="node"><title>Royce::Role</title>
<ellipse fill="none" stroke="black" cx="960.45" cy="-85.5" rx="54.1317" ry="18"/>
<text text-anchor="middle" x="960.45" y="-81.3" font-family="Times,serif" font-size="14.00">Royce::Role</text>
</g>
<!-- User&#45;&gt;Royce::Role -->
<g id="edge5" class="edge"><title>User&#45;&gt;Royce::Role</title>
<path fill="none" stroke="#462aed" d="M901.611,-212.375C903.248,-209.229 904.863,-206.101 906.45,-203 922.001,-172.612 938.268,-136.896 948.831,-113.098"/>
<polygon fill="#462aed" stroke="#462aed" points="901.584,-212.426 892.956,-219.195 899.263,-216.855 896.942,-221.284 896.942,-221.284 896.942,-221.284 899.263,-216.855 900.928,-223.373 901.584,-212.426 901.584,-212.426"/>
<polygon fill="#462aed" stroke="#462aed" points="948.951,-112.826 957.107,-105.496 950.971,-108.252 952.99,-103.678 952.99,-103.678 952.99,-103.678 950.971,-108.252 948.874,-101.861 948.951,-112.826 948.951,-112.826"/>
<text text-anchor="middle" x="926.057" y="-191.8" font-family="Times,serif" font-size="14.00">roles</text>
</g>
<!-- WsMethod -->
<g id="node10" class="node"><title>WsMethod</title>
<path fill="none" stroke="black" d="M310.587,-291.5C310.587,-291.5 534.312,-291.5 534.312,-291.5 540.312,-291.5 546.312,-297.5 546.312,-303.5 546.312,-303.5 546.312,-435.5 546.312,-435.5 546.312,-441.5 540.312,-447.5 534.312,-447.5 534.312,-447.5 310.587,-447.5 310.587,-447.5 304.587,-447.5 298.587,-441.5 298.587,-435.5 298.587,-435.5 298.587,-303.5 298.587,-303.5 298.587,-297.5 304.587,-291.5 310.587,-291.5"/>
<text text-anchor="middle" x="422.45" y="-432.3" font-family="Times,serif" font-size="14.00">WsMethod</text>
<polyline fill="none" stroke="black" points="298.587,-425.5 546.312,-425.5 "/>
<text text-anchor="start" x="306.587" y="-410.3" font-family="Times,serif" font-size="14.00">id :integer</text>
<text text-anchor="start" x="306.587" y="-396.3" font-family="Times,serif" font-size="14.00">name :character varying</text>
<text text-anchor="start" x="306.587" y="-382.3" font-family="Times,serif" font-size="14.00">code :character varying</text>
<text text-anchor="start" x="306.587" y="-368.3" font-family="Times,serif" font-size="14.00">test_input :character varying</text>
<text text-anchor="start" x="306.587" y="-354.3" font-family="Times,serif" font-size="14.00">test_output :character varying</text>
<text text-anchor="start" x="306.587" y="-340.3" font-family="Times,serif" font-size="14.00">created_at :timestamp without time zone</text>
<text text-anchor="start" x="306.587" y="-326.3" font-family="Times,serif" font-size="14.00">updated_at :timestamp without time zone</text>
<text text-anchor="start" x="306.587" y="-312.3" font-family="Times,serif" font-size="14.00">format_output :format_type</text>
<text text-anchor="start" x="306.587" y="-298.3" font-family="Times,serif" font-size="14.00">input :character varying</text>
</g>
<!-- WsMethod&#45;&gt;Description -->
<g id="edge6" class="edge"><title>WsMethod&#45;&gt;Description</title>
<path fill="none" stroke="#db940d" d="M395.11,-283.778C382.35,-244.234 367.309,-197.624 355.052,-159.641"/>
<ellipse fill="none" stroke="#db940d" cx="396.355" cy="-287.636" rx="4.00001" ry="4.00001"/>
<polygon fill="#db940d" stroke="#db940d" points="354.908,-159.193 356.119,-148.295 353.372,-154.435 351.836,-149.677 351.836,-149.677 351.836,-149.677 353.372,-154.435 347.554,-151.059 354.908,-159.193 354.908,-159.193"/>
</g>
<!-- WsMethod&#45;&gt;WsJob -->
<g id="edge7" class="edge"><title>WsMethod&#45;&gt;WsJob</title>
<path fill="none" stroke="#ace4b0" d="M474.677,-284.339C495.231,-251.218 518.904,-213.071 539.944,-179.167"/>
<ellipse fill="none" stroke="#ace4b0" cx="472.378" cy="-288.044" rx="4.00002" ry="4.00002"/>
<polygon fill="#ace4b0" stroke="#ace4b0" points="539.96,-179.141 549.056,-173.017 542.596,-174.892 545.233,-170.644 545.233,-170.644 545.233,-170.644 542.596,-174.892 541.409,-168.271 539.96,-179.141 539.96,-179.141"/>
</g>
</g>
</svg>
