<?xml version="1.0" encoding="UTF-8" standalone="no"?>
<!DOCTYPE svg PUBLIC "-//W3C//DTD SVG 1.1//EN"
 "http://www.w3.org/Graphics/SVG/1.1/DTD/svg11.dtd">
<!-- Generated by graphviz version 2.38.0 (20140413.2041)
 -->
<!-- Title: models_diagram Pages: 1 -->
<svg width="1001pt" height="167pt"
 viewBox="0.00 0.00 1001.18 167.00" xmlns="http://www.w3.org/2000/svg" xmlns:xlink="http://www.w3.org/1999/xlink">
<g id="graph0" class="graph" transform="scale(1 1) rotate(0) translate(4 163)">
<title>models_diagram</title>
<polygon fill="none" stroke="none" points="-4,4 -4,-163 997.176,-163 997.176,4 -4,4"/>
<!-- _diagram_info -->
<g id="node1" class="node"><title>_diagram_info</title>
<text text-anchor="start" x="8" y="-144.6" font-family="Times,serif" font-size="13.00">Models diagram</text>
<text text-anchor="start" x="8" y="-131.6" font-family="Times,serif" font-size="13.00">Date: Nov 14 2015 &#45; 23:09</text>
<text text-anchor="start" x="8" y="-118.6" font-family="Times,serif" font-size="13.00">Migration version: 20151031143344</text>
<text text-anchor="start" x="8" y="-105.6" font-family="Times,serif" font-size="13.00">Generated by RailRoady 1.4.1</text>
<text text-anchor="start" x="8" y="-92.6" font-family="Times,serif" font-size="13.00">http://railroady.prestonlee.com</text>
</g>
<!-- Ability -->
<g id="node2" class="node"><title>Ability</title>
<polygon fill="none" stroke="black" points="280.12,-140.5 224.78,-140.5 224.78,-104.5 280.12,-104.5 280.12,-140.5"/>
<text text-anchor="middle" x="252.45" y="-118.3" font-family="Times,serif" font-size="14.00">Ability</text>
</g>
<!-- Description -->
<g id="node3" class="node"><title>Description</title>
<ellipse fill="none" stroke="black" cx="321.45" cy="-18" rx="51.2329" ry="18"/>
<text text-anchor="middle" x="321.45" y="-13.8" font-family="Times,serif" font-size="14.00">Description</text>
</g>
<!-- Document -->
<g id="node4" class="node"><title>Document</title>
<ellipse fill="none" stroke="black" cx="808.45" cy="-122.5" rx="46.8891" ry="18"/>
<text text-anchor="middle" x="808.45" y="-118.3" font-family="Times,serif" font-size="14.00">Document</text>
</g>
<!-- Subject -->
<g id="node7" class="node"><title>Subject</title>
<ellipse fill="none" stroke="black" cx="808.45" cy="-18" rx="36.7663" ry="18"/>
<text text-anchor="middle" x="808.45" y="-13.8" font-family="Times,serif" font-size="14.00">Subject</text>
</g>
<!-- Document&#45;&gt;Subject -->
<g id="edge1" class="edge"><title>Document&#45;&gt;Subject</title>
<path fill="none" stroke="#9cbb15" d="M808.45,-93.9744C808.45,-79.1551 808.45,-60.9399 808.45,-46.1747"/>
<polygon fill="#9cbb15" stroke="#9cbb15" points="808.45,-94.1123 803.95,-104.112 808.45,-99.1123 808.45,-104.112 808.45,-104.112 808.45,-104.112 808.45,-99.1123 812.95,-104.112 808.45,-94.1123 808.45,-94.1123"/>
<polygon fill="#9cbb15" stroke="#9cbb15" points="808.45,-46.1309 812.95,-36.1309 808.45,-41.1309 808.45,-36.1309 808.45,-36.1309 808.45,-36.1309 808.45,-41.1309 803.95,-36.131 808.45,-46.1309 808.45,-46.1309"/>
</g>
<!-- Student -->
<g id="node5" class="node"><title>Student</title>
<ellipse fill="none" stroke="black" cx="933.45" cy="-18" rx="37.2594" ry="18"/>
<text text-anchor="middle" x="933.45" y="-13.8" font-family="Times,serif" font-size="14.00">Student</text>
</g>
<!-- StudentGroup -->
<g id="node6" class="node"><title>StudentGroup</title>
<ellipse fill="none" stroke="black" cx="933.45" cy="-122.5" rx="59.953" ry="18"/>
<text text-anchor="middle" x="933.45" y="-118.3" font-family="Times,serif" font-size="14.00">StudentGroup</text>
</g>
<!-- StudentGroup&#45;&gt;Student -->
<g id="edge2" class="edge"><title>StudentGroup&#45;&gt;Student</title>
<path fill="none" stroke="#9a33ab" d="M933.45,-96.0171C933.45,-80.9864 933.45,-61.959 933.45,-46.5774"/>
<ellipse fill="none" stroke="#9a33ab" cx="933.45" cy="-100.112" rx="4" ry="4"/>
<polygon fill="#9a33ab" stroke="#9a33ab" points="933.45,-46.1309 937.95,-36.1309 933.45,-41.1309 933.45,-36.1309 933.45,-36.1309 933.45,-36.1309 933.45,-41.1309 928.95,-36.131 933.45,-46.1309 933.45,-46.1309"/>
</g>
<!-- User -->
<g id="node8" class="node"><title>User</title>
<ellipse fill="none" stroke="black" cx="552.45" cy="-122.5" rx="27" ry="18"/>
<text text-anchor="middle" x="552.45" y="-118.3" font-family="Times,serif" font-size="14.00">User</text>
</g>
<!-- WsJob -->
<g id="node9" class="node"><title>WsJob</title>
<ellipse fill="none" stroke="black" cx="425.45" cy="-18" rx="34.3614" ry="18"/>
<text text-anchor="middle" x="425.45" y="-13.8" font-family="Times,serif" font-size="14.00">WsJob</text>
</g>
<!-- User&#45;&gt;WsJob -->
<g id="edge3" class="edge"><title>User&#45;&gt;WsJob</title>
<path fill="none" stroke="#09919a" d="M529.572,-103.036C507.526,-85.2429 474.22,-58.362 451.242,-39.8169"/>
<ellipse fill="none" stroke="#09919a" cx="532.734" cy="-105.588" rx="4.00002" ry="4.00002"/>
<polygon fill="#09919a" stroke="#09919a" points="451.066,-39.6745 446.11,-29.8921 447.175,-36.5342 443.284,-33.3939 443.284,-33.3939 443.284,-33.3939 447.175,-36.5342 440.458,-36.8957 451.066,-39.6745 451.066,-39.6745"/>
</g>
<!-- Royce::Connector -->
<g id="node11" class="node"><title>Royce::Connector</title>
<ellipse fill="none" stroke="black" cx="552.45" cy="-18" rx="74.4016" ry="18"/>
<text text-anchor="middle" x="552.45" y="-13.8" font-family="Times,serif" font-size="14.00">Royce::Connector</text>
</g>
<!-- User&#45;&gt;Royce::Connector -->
<g id="edge4" class="edge"><title>User&#45;&gt;Royce::Connector</title>
<path fill="none" stroke="#d7218b" d="M552.45,-96.0171C552.45,-80.9864 552.45,-61.959 552.45,-46.5774"/>
<ellipse fill="none" stroke="#d7218b" cx="552.45" cy="-100.112" rx="4" ry="4"/>
<polygon fill="#d7218b" stroke="#d7218b" points="552.45,-46.1309 556.95,-36.1309 552.45,-41.1309 552.45,-36.1309 552.45,-36.1309 552.45,-36.1309 552.45,-41.1309 547.95,-36.131 552.45,-46.1309 552.45,-46.1309"/>
<text text-anchor="middle" x="597.153" y="-56.8" font-family="Times,serif" font-size="14.00">role_connectors</text>
</g>
<!-- Royce::Role -->
<g id="node12" class="node"><title>Royce::Role</title>
<ellipse fill="none" stroke="black" cx="699.45" cy="-18" rx="54.1317" ry="18"/>
<text text-anchor="middle" x="699.45" y="-13.8" font-family="Times,serif" font-size="14.00">Royce::Role</text>
</g>
<!-- User&#45;&gt;Royce::Role -->
<g id="edge5" class="edge"><title>User&#45;&gt;Royce::Role</title>
<path fill="none" stroke="#0b04d0" d="M582.528,-106.327C601.252,-96.3712 625.485,-82.5404 645.45,-68 656.003,-60.3144 666.816,-50.8694 675.968,-42.3297"/>
<polygon fill="#0b04d0" stroke="#0b04d0" points="582.415,-106.386 571.469,-107.039 577.986,-108.705 573.557,-111.025 573.557,-111.025 573.557,-111.025 577.986,-108.705 575.645,-115.012 582.415,-106.386 582.415,-106.386"/>
<polygon fill="#0b04d0" stroke="#0b04d0" points="675.977,-42.3206 686.324,-38.6879 679.6,-38.8741 683.222,-35.4277 683.222,-35.4277 683.222,-35.4277 679.6,-38.8741 680.121,-32.1675 675.977,-42.3206 675.977,-42.3206"/>
<text text-anchor="middle" x="676.057" y="-56.8" font-family="Times,serif" font-size="14.00">roles</text>
</g>
<!-- WsMethod -->
<g id="node10" class="node"><title>WsMethod</title>
<ellipse fill="none" stroke="black" cx="347.45" cy="-122.5" rx="49.3119" ry="18"/>
<text text-anchor="middle" x="347.45" y="-118.3" font-family="Times,serif" font-size="14.00">WsMethod</text>
</g>
<!-- WsMethod&#45;&gt;Description -->
<g id="edge6" class="edge"><title>WsMethod&#45;&gt;Description</title>
<path fill="none" stroke="#9d9140" d="M341.05,-96.2691C337.194,-81.0698 332.285,-61.7149 328.344,-46.1787"/>
<ellipse fill="none" stroke="#9d9140" cx="342.056" cy="-100.235" rx="4.00001" ry="4.00001"/>
<polygon fill="#9d9140" stroke="#9d9140" points="328.254,-45.824 330.157,-35.0245 327.025,-40.9775 325.795,-36.1309 325.795,-36.1309 325.795,-36.1309 327.025,-40.9775 321.433,-37.2374 328.254,-45.824 328.254,-45.824"/>
</g>
<!-- WsMethod&#45;&gt;WsJob -->
<g id="edge7" class="edge"><title>WsMethod&#45;&gt;WsJob</title>
<path fill="none" stroke="#6e95bb" d="M364.907,-98.5597C377.414,-82.1244 394.228,-60.029 406.963,-43.294"/>
<ellipse fill="none" stroke="#6e95bb" cx="362.404" cy="-101.848" rx="4.00002" ry="4.00002"/>
<polygon fill="#6e95bb" stroke="#6e95bb" points="407.15,-43.0475 416.787,-37.8147 410.178,-39.0685 413.206,-35.0896 413.206,-35.0896 413.206,-35.0896 410.178,-39.0685 409.625,-32.3645 407.15,-43.0475 407.15,-43.0475"/>
</g>
</g>
</svg>
