<?xml version="1.0" encoding="UTF-8" standalone="no"?>
<!DOCTYPE svg PUBLIC "-//W3C//DTD SVG 1.1//EN"
 "http://www.w3.org/Graphics/SVG/1.1/DTD/svg11.dtd">
<!-- Generated by graphviz version 2.38.0 (20140413.2041)
 -->
<!-- Title: models_diagram Pages: 1 -->
<svg width="2325pt" height="1065pt"
 viewBox="0.00 0.00 2324.55 1065.00" xmlns="http://www.w3.org/2000/svg" xmlns:xlink="http://www.w3.org/1999/xlink">
<g id="graph0" class="graph" transform="scale(1 1) rotate(0) translate(4 1061)">
<title>models_diagram</title>
<polygon fill="none" stroke="none" points="-4,4 -4,-1061 2320.55,-1061 2320.55,4 -4,4"/>
<!-- _diagram_info -->
<g id="node1" class="node"><title>_diagram_info</title>
<text text-anchor="start" x="8" y="-930.6" font-family="Times,serif" font-size="13.00">Models diagram</text>
<text text-anchor="start" x="8" y="-917.6" font-family="Times,serif" font-size="13.00">Date: Jun 03 2016 &#45; 14:54</text>
<text text-anchor="start" x="8" y="-904.6" font-family="Times,serif" font-size="13.00">Migration version: 20160513092136</text>
<text text-anchor="start" x="8" y="-891.6" font-family="Times,serif" font-size="13.00">Generated by RailRoady 1.4.1</text>
<text text-anchor="start" x="8" y="-878.6" font-family="Times,serif" font-size="13.00">http://railroady.prestonlee.com</text>
</g>
<!-- Ability -->
<g id="node2" class="node"><title>Ability</title>
<polygon fill="none" stroke="black" points="225.853,-886.5 225.853,-930.5 281.522,-930.5 281.522,-886.5 225.853,-886.5"/>
<text text-anchor="middle" x="253.688" y="-915.3" font-family="Times,serif" font-size="14.00">Ability</text>
<polyline fill="none" stroke="black" points="225.853,-908.5 281.522,-908.5 "/>
<text text-anchor="middle" x="253.688" y="-893.3" font-family="Times,serif" font-size="14.00"> </text>
</g>
<!-- Description -->
<g id="node3" class="node"><title>Description</title>
<path fill="none" stroke="black" d="M45.8254,-560.5C45.8254,-560.5 269.55,-560.5 269.55,-560.5 275.55,-560.5 281.55,-566.5 281.55,-572.5 281.55,-572.5 281.55,-676.5 281.55,-676.5 281.55,-682.5 275.55,-688.5 269.55,-688.5 269.55,-688.5 45.8254,-688.5 45.8254,-688.5 39.8254,-688.5 33.8254,-682.5 33.8254,-676.5 33.8254,-676.5 33.8254,-572.5 33.8254,-572.5 33.8254,-566.5 39.8254,-560.5 45.8254,-560.5"/>
<text text-anchor="middle" x="157.688" y="-673.3" font-family="Times,serif" font-size="14.00">Description</text>
<polyline fill="none" stroke="black" points="33.8254,-666.5 281.55,-666.5 "/>
<text text-anchor="start" x="41.8254" y="-651.3" font-family="Times,serif" font-size="14.00">id :integer</text>
<text text-anchor="start" x="41.8254" y="-637.3" font-family="Times,serif" font-size="14.00">descr :character varying</text>
<text text-anchor="start" x="41.8254" y="-623.3" font-family="Times,serif" font-size="14.00">locale :character varying</text>
<text text-anchor="start" x="41.8254" y="-609.3" font-family="Times,serif" font-size="14.00">rec_id :integer</text>
<text text-anchor="start" x="41.8254" y="-595.3" font-family="Times,serif" font-size="14.00">rec_type :character varying</text>
<text text-anchor="start" x="41.8254" y="-581.3" font-family="Times,serif" font-size="14.00">created_at :timestamp without time zone</text>
<text text-anchor="start" x="41.8254" y="-567.3" font-family="Times,serif" font-size="14.00">updated_at :timestamp without time zone</text>
</g>
<!-- Document -->
<g id="node4" class="node"><title>Document</title>
<path fill="none" stroke="black" d="M1136.83,-844.5C1136.83,-844.5 1360.55,-844.5 1360.55,-844.5 1366.55,-844.5 1372.55,-850.5 1372.55,-856.5 1372.55,-856.5 1372.55,-960.5 1372.55,-960.5 1372.55,-966.5 1366.55,-972.5 1360.55,-972.5 1360.55,-972.5 1136.83,-972.5 1136.83,-972.5 1130.83,-972.5 1124.83,-966.5 1124.83,-960.5 1124.83,-960.5 1124.83,-856.5 1124.83,-856.5 1124.83,-850.5 1130.83,-844.5 1136.83,-844.5"/>
<text text-anchor="middle" x="1248.69" y="-957.3" font-family="Times,serif" font-size="14.00">Document</text>
<polyline fill="none" stroke="black" points="1124.83,-950.5 1372.55,-950.5 "/>
<text text-anchor="start" x="1132.83" y="-935.3" font-family="Times,serif" font-size="14.00">id :integer</text>
<text text-anchor="start" x="1132.83" y="-921.3" font-family="Times,serif" font-size="14.00">name :character varying</text>
<text text-anchor="start" x="1132.83" y="-907.3" font-family="Times,serif" font-size="14.00">filename :character varying</text>
<text text-anchor="start" x="1132.83" y="-893.3" font-family="Times,serif" font-size="14.00">content_type :character varying</text>
<text text-anchor="start" x="1132.83" y="-879.3" font-family="Times,serif" font-size="14.00">file_contents :bytea</text>
<text text-anchor="start" x="1132.83" y="-865.3" font-family="Times,serif" font-size="14.00">created_at :timestamp without time zone</text>
<text text-anchor="start" x="1132.83" y="-851.3" font-family="Times,serif" font-size="14.00">updated_at :timestamp without time zone</text>
</g>
<!-- Subject -->
<g id="node7" class="node"><title>Subject</title>
<path fill="none" stroke="black" d="M1136.83,-581.5C1136.83,-581.5 1360.55,-581.5 1360.55,-581.5 1366.55,-581.5 1372.55,-587.5 1372.55,-593.5 1372.55,-593.5 1372.55,-655.5 1372.55,-655.5 1372.55,-661.5 1366.55,-667.5 1360.55,-667.5 1360.55,-667.5 1136.83,-667.5 1136.83,-667.5 1130.83,-667.5 1124.83,-661.5 1124.83,-655.5 1124.83,-655.5 1124.83,-593.5 1124.83,-593.5 1124.83,-587.5 1130.83,-581.5 1136.83,-581.5"/>
<text text-anchor="middle" x="1248.69" y="-652.3" font-family="Times,serif" font-size="14.00">Subject</text>
<polyline fill="none" stroke="black" points="1124.83,-645.5 1372.55,-645.5 "/>
<text text-anchor="start" x="1132.83" y="-630.3" font-family="Times,serif" font-size="14.00">id :integer</text>
<text text-anchor="start" x="1132.83" y="-616.3" font-family="Times,serif" font-size="14.00">name :character varying</text>
<text text-anchor="start" x="1132.83" y="-602.3" font-family="Times,serif" font-size="14.00">created_at :timestamp without time zone</text>
<text text-anchor="start" x="1132.83" y="-588.3" font-family="Times,serif" font-size="14.00">updated_at :timestamp without time zone</text>
</g>
<!-- Document&#45;&gt;Subject -->
<g id="edge1" class="edge"><title>Document&#45;&gt;Subject</title>
<path fill="none" stroke="#6d1aa9" d="M1248.69,-834.19C1248.69,-785.142 1248.69,-721.767 1248.69,-677.786"/>
<polygon fill="#6d1aa9" stroke="#6d1aa9" points="1248.69,-834.214 1244.19,-844.214 1248.69,-839.214 1248.69,-844.214 1248.69,-844.214 1248.69,-844.214 1248.69,-839.214 1253.19,-844.214 1248.69,-834.214 1248.69,-834.214"/>
<polygon fill="#6d1aa9" stroke="#6d1aa9" points="1248.69,-677.599 1253.19,-667.599 1248.69,-672.599 1248.69,-667.599 1248.69,-667.599 1248.69,-667.599 1248.69,-672.599 1244.19,-667.599 1248.69,-677.599 1248.69,-677.599"/>
</g>
<!-- Student -->
<g id="node5" class="node"><title>Student</title>
<path fill="none" stroke="black" d="M1402.83,-546.5C1402.83,-546.5 1626.55,-546.5 1626.55,-546.5 1632.55,-546.5 1638.55,-552.5 1638.55,-558.5 1638.55,-558.5 1638.55,-690.5 1638.55,-690.5 1638.55,-696.5 1632.55,-702.5 1626.55,-702.5 1626.55,-702.5 1402.83,-702.5 1402.83,-702.5 1396.83,-702.5 1390.83,-696.5 1390.83,-690.5 1390.83,-690.5 1390.83,-558.5 1390.83,-558.5 1390.83,-552.5 1396.83,-546.5 1402.83,-546.5"/>
<text text-anchor="middle" x="1514.69" y="-687.3" font-family="Times,serif" font-size="14.00">Student</text>
<polyline fill="none" stroke="black" points="1390.83,-680.5 1638.55,-680.5 "/>
<text text-anchor="start" x="1398.83" y="-665.3" font-family="Times,serif" font-size="14.00">id :integer</text>
<text text-anchor="start" x="1398.83" y="-651.3" font-family="Times,serif" font-size="14.00">name :character varying</text>
<text text-anchor="start" x="1398.83" y="-637.3" font-family="Times,serif" font-size="14.00">mname :character varying</text>
<text text-anchor="start" x="1398.83" y="-623.3" font-family="Times,serif" font-size="14.00">lname :character varying</text>
<text text-anchor="start" x="1398.83" y="-609.3" font-family="Times,serif" font-size="14.00">serial :character varying</text>
<text text-anchor="start" x="1398.83" y="-595.3" font-family="Times,serif" font-size="14.00">email :character varying</text>
<text text-anchor="start" x="1398.83" y="-581.3" font-family="Times,serif" font-size="14.00">student_group_id :integer</text>
<text text-anchor="start" x="1398.83" y="-567.3" font-family="Times,serif" font-size="14.00">created_at :timestamp without time zone</text>
<text text-anchor="start" x="1398.83" y="-553.3" font-family="Times,serif" font-size="14.00">updated_at :timestamp without time zone</text>
</g>
<!-- StudentGroup -->
<g id="node6" class="node"><title>StudentGroup</title>
<path fill="none" stroke="black" d="M1402.83,-858.5C1402.83,-858.5 1626.55,-858.5 1626.55,-858.5 1632.55,-858.5 1638.55,-864.5 1638.55,-870.5 1638.55,-870.5 1638.55,-946.5 1638.55,-946.5 1638.55,-952.5 1632.55,-958.5 1626.55,-958.5 1626.55,-958.5 1402.83,-958.5 1402.83,-958.5 1396.83,-958.5 1390.83,-952.5 1390.83,-946.5 1390.83,-946.5 1390.83,-870.5 1390.83,-870.5 1390.83,-864.5 1396.83,-858.5 1402.83,-858.5"/>
<text text-anchor="middle" x="1514.69" y="-943.3" font-family="Times,serif" font-size="14.00">StudentGroup</text>
<polyline fill="none" stroke="black" points="1390.83,-936.5 1638.55,-936.5 "/>
<text text-anchor="start" x="1398.83" y="-921.3" font-family="Times,serif" font-size="14.00">id :integer</text>
<text text-anchor="start" x="1398.83" y="-907.3" font-family="Times,serif" font-size="14.00">name :character varying</text>
<text text-anchor="start" x="1398.83" y="-893.3" font-family="Times,serif" font-size="14.00">year :integer</text>
<text text-anchor="start" x="1398.83" y="-879.3" font-family="Times,serif" font-size="14.00">created_at :timestamp without time zone</text>
<text text-anchor="start" x="1398.83" y="-865.3" font-family="Times,serif" font-size="14.00">updated_at :timestamp without time zone</text>
</g>
<!-- StudentGroup&#45;&gt;Student -->
<g id="edge2" class="edge"><title>StudentGroup&#45;&gt;Student</title>
<path fill="none" stroke="#5a0790" d="M1514.69,-850.369C1514.69,-810.86 1514.69,-757.55 1514.69,-712.753"/>
<ellipse fill="none" stroke="#5a0790" cx="1514.69" cy="-854.379" rx="4" ry="4"/>
<polygon fill="#5a0790" stroke="#5a0790" points="1514.69,-712.744 1519.19,-702.744 1514.69,-707.744 1514.69,-702.744 1514.69,-702.744 1514.69,-702.744 1514.69,-707.744 1510.19,-702.744 1514.69,-712.744 1514.69,-712.744"/>
</g>
<!-- User -->
<g id="node8" class="node"><title>User</title>
<path fill="none" stroke="black" d="M758.053,-760.5C758.053,-760.5 1053.32,-760.5 1053.32,-760.5 1059.32,-760.5 1065.32,-766.5 1065.32,-772.5 1065.32,-772.5 1065.32,-1044.5 1065.32,-1044.5 1065.32,-1050.5 1059.32,-1056.5 1053.32,-1056.5 1053.32,-1056.5 758.053,-1056.5 758.053,-1056.5 752.053,-1056.5 746.053,-1050.5 746.053,-1044.5 746.053,-1044.5 746.053,-772.5 746.053,-772.5 746.053,-766.5 752.053,-760.5 758.053,-760.5"/>
<text text-anchor="middle" x="905.688" y="-1041.3" font-family="Times,serif" font-size="14.00">User</text>
<polyline fill="none" stroke="black" points="746.053,-1034.5 1065.32,-1034.5 "/>
<text text-anchor="start" x="754.053" y="-1019.3" font-family="Times,serif" font-size="14.00">id :integer</text>
<text text-anchor="start" x="754.053" y="-1005.3" font-family="Times,serif" font-size="14.00">email :character varying</text>
<text text-anchor="start" x="754.053" y="-991.3" font-family="Times,serif" font-size="14.00">encrypted_password :character varying</text>
<text text-anchor="start" x="754.053" y="-977.3" font-family="Times,serif" font-size="14.00">reset_password_token :character varying</text>
<text text-anchor="start" x="754.053" y="-963.3" font-family="Times,serif" font-size="14.00">reset_password_sent_at :timestamp without time zone</text>
<text text-anchor="start" x="754.053" y="-949.3" font-family="Times,serif" font-size="14.00">remember_created_at :timestamp without time zone</text>
<text text-anchor="start" x="754.053" y="-935.3" font-family="Times,serif" font-size="14.00">sign_in_count :integer</text>
<text text-anchor="start" x="754.053" y="-921.3" font-family="Times,serif" font-size="14.00">current_sign_in_at :timestamp without time zone</text>
<text text-anchor="start" x="754.053" y="-907.3" font-family="Times,serif" font-size="14.00">last_sign_in_at :timestamp without time zone</text>
<text text-anchor="start" x="754.053" y="-893.3" font-family="Times,serif" font-size="14.00">current_sign_in_ip :inet</text>
<text text-anchor="start" x="754.053" y="-879.3" font-family="Times,serif" font-size="14.00">last_sign_in_ip :inet</text>
<text text-anchor="start" x="754.053" y="-865.3" font-family="Times,serif" font-size="14.00">created_at :timestamp without time zone</text>
<text text-anchor="start" x="754.053" y="-851.3" font-family="Times,serif" font-size="14.00">updated_at :timestamp without time zone</text>
<text text-anchor="start" x="754.053" y="-837.3" font-family="Times,serif" font-size="14.00">confirmation_token :character varying</text>
<text text-anchor="start" x="754.053" y="-823.3" font-family="Times,serif" font-size="14.00">confirmed_at :timestamp without time zone</text>
<text text-anchor="start" x="754.053" y="-809.3" font-family="Times,serif" font-size="14.00">confirmation_sent_at :timestamp without time zone</text>
<text text-anchor="start" x="754.053" y="-795.3" font-family="Times,serif" font-size="14.00">unconfirmed_email :character varying</text>
<text text-anchor="start" x="754.053" y="-781.3" font-family="Times,serif" font-size="14.00">authentication_token :character varying</text>
<text text-anchor="start" x="754.053" y="-767.3" font-family="Times,serif" font-size="14.00">numjobs :integer</text>
</g>
<!-- WsJob -->
<g id="node9" class="node"><title>WsJob</title>
<path fill="none" stroke="black" d="M577.825,-539.5C577.825,-539.5 801.55,-539.5 801.55,-539.5 807.55,-539.5 813.55,-545.5 813.55,-551.5 813.55,-551.5 813.55,-697.5 813.55,-697.5 813.55,-703.5 807.55,-709.5 801.55,-709.5 801.55,-709.5 577.825,-709.5 577.825,-709.5 571.825,-709.5 565.825,-703.5 565.825,-697.5 565.825,-697.5 565.825,-551.5 565.825,-551.5 565.825,-545.5 571.825,-539.5 577.825,-539.5"/>
<text text-anchor="middle" x="689.688" y="-694.3" font-family="Times,serif" font-size="14.00">WsJob</text>
<polyline fill="none" stroke="black" points="565.825,-687.5 813.55,-687.5 "/>
<text text-anchor="start" x="573.825" y="-672.3" font-family="Times,serif" font-size="14.00">id :integer</text>
<text text-anchor="start" x="573.825" y="-658.3" font-family="Times,serif" font-size="14.00">input :text</text>
<text text-anchor="start" x="573.825" y="-644.3" font-family="Times,serif" font-size="14.00">output :text</text>
<text text-anchor="start" x="573.825" y="-630.3" font-family="Times,serif" font-size="14.00">ws_method_id :integer</text>
<text text-anchor="start" x="573.825" y="-616.3" font-family="Times,serif" font-size="14.00">user_id :integer</text>
<text text-anchor="start" x="573.825" y="-602.3" font-family="Times,serif" font-size="14.00">created_at :timestamp without time zone</text>
<text text-anchor="start" x="573.825" y="-588.3" font-family="Times,serif" font-size="14.00">updated_at :timestamp without time zone</text>
<text text-anchor="start" x="573.825" y="-574.3" font-family="Times,serif" font-size="14.00">error_code :integer</text>
<text text-anchor="start" x="573.825" y="-560.3" font-family="Times,serif" font-size="14.00">for_check :integer</text>
<text text-anchor="start" x="573.825" y="-546.3" font-family="Times,serif" font-size="14.00">do_check :integer</text>
</g>
<!-- User&#45;&gt;WsJob -->
<g id="edge3" class="edge"><title>User&#45;&gt;WsJob</title>
<path fill="none" stroke="#29b602" d="M787.962,-753.803C778.535,-741.494 769.206,-729.316 760.268,-717.647"/>
<ellipse fill="none" stroke="#29b602" cx="790.511" cy="-757.13" rx="4.00002" ry="4.00002"/>
<polygon fill="#29b602" stroke="#29b602" points="760.227,-717.593 757.719,-706.918 757.187,-713.624 754.146,-709.654 754.146,-709.654 754.146,-709.654 757.187,-713.624 750.574,-712.391 760.227,-717.593 760.227,-717.593"/>
</g>
<!-- Royce::Connector -->
<g id="node20" class="node"><title>Royce::Connector</title>
<ellipse fill="none" stroke="black" cx="905.688" cy="-624.5" rx="74.4016" ry="18"/>
<text text-anchor="middle" x="905.688" y="-620.3" font-family="Times,serif" font-size="14.00">Royce::Connector</text>
</g>
<!-- User&#45;&gt;Royce::Connector -->
<g id="edge4" class="edge"><title>User&#45;&gt;Royce::Connector</title>
<path fill="none" stroke="#2c341d" d="M905.688,-752.285C905.688,-713.753 905.688,-676.651 905.688,-652.648"/>
<ellipse fill="none" stroke="#2c341d" cx="905.688" cy="-756.305" rx="4" ry="4"/>
<polygon fill="#2c341d" stroke="#2c341d" points="905.688,-652.583 910.188,-642.583 905.688,-647.583 905.688,-642.583 905.688,-642.583 905.688,-642.583 905.688,-647.583 901.188,-642.583 905.688,-652.583 905.688,-652.583"/>
<text text-anchor="middle" x="950.391" y="-730.8" font-family="Times,serif" font-size="14.00">role_connectors</text>
</g>
<!-- Royce::Role -->
<g id="node21" class="node"><title>Royce::Role</title>
<ellipse fill="none" stroke="black" cx="1052.69" cy="-624.5" rx="54.1317" ry="18"/>
<text text-anchor="middle" x="1052.69" y="-620.3" font-family="Times,serif" font-size="14.00">Royce::Role</text>
</g>
<!-- User&#45;&gt;Royce::Role -->
<g id="edge5" class="edge"><title>User&#45;&gt;Royce::Role</title>
<path fill="none" stroke="#7d80bd" d="M993.849,-751.375C995.486,-748.229 997.101,-745.101 998.688,-742 1014.24,-711.612 1030.51,-675.896 1041.07,-652.098"/>
<polygon fill="#7d80bd" stroke="#7d80bd" points="993.822,-751.426 985.194,-758.195 991.501,-755.855 989.18,-760.284 989.18,-760.284 989.18,-760.284 991.501,-755.855 993.166,-762.373 993.822,-751.426 993.822,-751.426"/>
<polygon fill="#7d80bd" stroke="#7d80bd" points="1041.19,-651.826 1049.34,-644.496 1043.21,-647.252 1045.23,-642.678 1045.23,-642.678 1045.23,-642.678 1043.21,-647.252 1041.11,-640.861 1041.19,-651.826 1041.19,-651.826"/>
<text text-anchor="middle" x="1019.29" y="-730.8" font-family="Times,serif" font-size="14.00">roles</text>
</g>
<!-- WsMethod -->
<g id="node10" class="node"><title>WsMethod</title>
<path fill="none" stroke="black" d="M311.825,-830.5C311.825,-830.5 535.55,-830.5 535.55,-830.5 541.55,-830.5 547.55,-836.5 547.55,-842.5 547.55,-842.5 547.55,-974.5 547.55,-974.5 547.55,-980.5 541.55,-986.5 535.55,-986.5 535.55,-986.5 311.825,-986.5 311.825,-986.5 305.825,-986.5 299.825,-980.5 299.825,-974.5 299.825,-974.5 299.825,-842.5 299.825,-842.5 299.825,-836.5 305.825,-830.5 311.825,-830.5"/>
<text text-anchor="middle" x="423.688" y="-971.3" font-family="Times,serif" font-size="14.00">WsMethod</text>
<polyline fill="none" stroke="black" points="299.825,-964.5 547.55,-964.5 "/>
<text text-anchor="start" x="307.825" y="-949.3" font-family="Times,serif" font-size="14.00">id :integer</text>
<text text-anchor="start" x="307.825" y="-935.3" font-family="Times,serif" font-size="14.00">name :character varying</text>
<text text-anchor="start" x="307.825" y="-921.3" font-family="Times,serif" font-size="14.00">code :character varying</text>
<text text-anchor="start" x="307.825" y="-907.3" font-family="Times,serif" font-size="14.00">test_input :character varying</text>
<text text-anchor="start" x="307.825" y="-893.3" font-family="Times,serif" font-size="14.00">test_output :character varying</text>
<text text-anchor="start" x="307.825" y="-879.3" font-family="Times,serif" font-size="14.00">created_at :timestamp without time zone</text>
<text text-anchor="start" x="307.825" y="-865.3" font-family="Times,serif" font-size="14.00">updated_at :timestamp without time zone</text>
<text text-anchor="start" x="307.825" y="-851.3" font-family="Times,serif" font-size="14.00">format_output :format_type</text>
<text text-anchor="start" x="307.825" y="-837.3" font-family="Times,serif" font-size="14.00">input :character varying</text>
</g>
<!-- WsMethod&#45;&gt;Description -->
<g id="edge6" class="edge"><title>WsMethod&#45;&gt;Description</title>
<path fill="none" stroke="#82801d" d="M349.727,-824.13C330.679,-803.031 310.08,-780.535 290.688,-760 270.721,-738.856 248.652,-716.245 228.326,-695.713"/>
<ellipse fill="none" stroke="#82801d" cx="352.642" cy="-827.363" rx="4.00002" ry="4.00002"/>
<polygon fill="#82801d" stroke="#82801d" points="228.256,-695.643 224.41,-685.374 224.736,-692.093 221.215,-688.543 221.215,-688.543 221.215,-688.543 224.736,-692.093 218.02,-691.711 228.256,-695.643 228.256,-695.643"/>
</g>
<!-- WsMethod&#45;&gt;WsJob -->
<g id="edge7" class="edge"><title>WsMethod&#45;&gt;WsJob</title>
<path fill="none" stroke="#b235c3" d="M502.228,-824.236C534.042,-790.508 570.882,-751.452 603.439,-716.937"/>
<ellipse fill="none" stroke="#b235c3" cx="499.118" cy="-827.532" rx="4.00002" ry="4.00002"/>
<polygon fill="#b235c3" stroke="#b235c3" points="603.456,-716.918 613.592,-712.732 606.887,-713.281 610.318,-709.644 610.318,-709.644 610.318,-709.644 606.887,-713.281 607.045,-706.556 603.456,-716.918 603.456,-716.918"/>
</g>
<!-- WsModel -->
<g id="node11" class="node"><title>WsModel</title>
<path fill="none" stroke="black" d="M311.825,-553.5C311.825,-553.5 535.55,-553.5 535.55,-553.5 541.55,-553.5 547.55,-559.5 547.55,-565.5 547.55,-565.5 547.55,-683.5 547.55,-683.5 547.55,-689.5 541.55,-695.5 535.55,-695.5 535.55,-695.5 311.825,-695.5 311.825,-695.5 305.825,-695.5 299.825,-689.5 299.825,-683.5 299.825,-683.5 299.825,-565.5 299.825,-565.5 299.825,-559.5 305.825,-553.5 311.825,-553.5"/>
<text text-anchor="middle" x="423.688" y="-680.3" font-family="Times,serif" font-size="14.00">WsModel</text>
<polyline fill="none" stroke="black" points="299.825,-673.5 547.55,-673.5 "/>
<text text-anchor="start" x="307.825" y="-658.3" font-family="Times,serif" font-size="14.00">id :integer</text>
<text text-anchor="start" x="307.825" y="-644.3" font-family="Times,serif" font-size="14.00">name :character varying</text>
<text text-anchor="start" x="307.825" y="-630.3" font-family="Times,serif" font-size="14.00">descr :character varying</text>
<text text-anchor="start" x="307.825" y="-616.3" font-family="Times,serif" font-size="14.00">model_url :character varying</text>
<text text-anchor="start" x="307.825" y="-602.3" font-family="Times,serif" font-size="14.00">created_at :timestamp without time zone</text>
<text text-anchor="start" x="307.825" y="-588.3" font-family="Times,serif" font-size="14.00">updated_at :timestamp without time zone</text>
<text text-anchor="start" x="307.825" y="-574.3" font-family="Times,serif" font-size="14.00">user_id :integer</text>
<text text-anchor="start" x="307.825" y="-560.3" font-family="Times,serif" font-size="14.00">ws_method_id :integer</text>
</g>
<!-- WsMethod&#45;&gt;WsModel -->
<g id="edge8" class="edge"><title>WsMethod&#45;&gt;WsModel</title>
<path fill="none" stroke="#4f56a0" d="M423.688,-822.192C423.688,-785.223 423.688,-742.168 423.688,-705.782"/>
<ellipse fill="none" stroke="#4f56a0" cx="423.688" cy="-826.442" rx="4" ry="4"/>
<polygon fill="#4f56a0" stroke="#4f56a0" points="423.688,-705.706 428.188,-695.706 423.688,-700.706 423.688,-695.706 423.688,-695.706 423.688,-695.706 423.688,-700.706 419.188,-695.706 423.688,-705.706 423.688,-705.706"/>
</g>
<!-- WsParamModel -->
<g id="node16" class="node"><title>WsParamModel</title>
<path fill="none" stroke="black" d="M311.825,-359.5C311.825,-359.5 535.55,-359.5 535.55,-359.5 541.55,-359.5 547.55,-365.5 547.55,-371.5 547.55,-371.5 547.55,-475.5 547.55,-475.5 547.55,-481.5 541.55,-487.5 535.55,-487.5 535.55,-487.5 311.825,-487.5 311.825,-487.5 305.825,-487.5 299.825,-481.5 299.825,-475.5 299.825,-475.5 299.825,-371.5 299.825,-371.5 299.825,-365.5 305.825,-359.5 311.825,-359.5"/>
<text text-anchor="middle" x="423.688" y="-472.3" font-family="Times,serif" font-size="14.00">WsParamModel</text>
<polyline fill="none" stroke="black" points="299.825,-465.5 547.55,-465.5 "/>
<text text-anchor="start" x="307.825" y="-450.3" font-family="Times,serif" font-size="14.00">id :integer</text>
<text text-anchor="start" x="307.825" y="-436.3" font-family="Times,serif" font-size="14.00">ws_model_id :integer</text>
<text text-anchor="start" x="307.825" y="-422.3" font-family="Times,serif" font-size="14.00">ws_param_id :integer</text>
<text text-anchor="start" x="307.825" y="-408.3" font-family="Times,serif" font-size="14.00">is_required :boolean</text>
<text text-anchor="start" x="307.825" y="-394.3" font-family="Times,serif" font-size="14.00">created_at :timestamp without time zone</text>
<text text-anchor="start" x="307.825" y="-380.3" font-family="Times,serif" font-size="14.00">updated_at :timestamp without time zone</text>
<text text-anchor="start" x="307.825" y="-366.3" font-family="Times,serif" font-size="14.00">is_copy :boolean</text>
</g>
<!-- WsModel&#45;&gt;WsParamModel -->
<g id="edge9" class="edge"><title>WsModel&#45;&gt;WsParamModel</title>
<path fill="none" stroke="#abad58" d="M423.688,-545.241C423.688,-529.594 423.688,-513.212 423.688,-497.742"/>
<ellipse fill="none" stroke="#abad58" cx="423.688" cy="-549.34" rx="4" ry="4"/>
<polygon fill="#abad58" stroke="#abad58" points="423.688,-497.724 428.188,-487.724 423.688,-492.724 423.688,-487.724 423.688,-487.724 423.688,-487.724 423.688,-492.724 419.188,-487.724 423.688,-497.724 423.688,-497.724"/>
</g>
<!-- WsModelRun -->
<g id="node12" class="node"><title>WsModelRun</title>
<path fill="none" stroke="black" d="M1814.83,-809.5C1814.83,-809.5 2038.55,-809.5 2038.55,-809.5 2044.55,-809.5 2050.55,-815.5 2050.55,-821.5 2050.55,-821.5 2050.55,-995.5 2050.55,-995.5 2050.55,-1001.5 2044.55,-1007.5 2038.55,-1007.5 2038.55,-1007.5 1814.83,-1007.5 1814.83,-1007.5 1808.83,-1007.5 1802.83,-1001.5 1802.83,-995.5 1802.83,-995.5 1802.83,-821.5 1802.83,-821.5 1802.83,-815.5 1808.83,-809.5 1814.83,-809.5"/>
<text text-anchor="middle" x="1926.69" y="-992.3" font-family="Times,serif" font-size="14.00">WsModelRun</text>
<polyline fill="none" stroke="black" points="1802.83,-985.5 2050.55,-985.5 "/>
<text text-anchor="start" x="1810.83" y="-970.3" font-family="Times,serif" font-size="14.00">id :integer</text>
<text text-anchor="start" x="1810.83" y="-956.3" font-family="Times,serif" font-size="14.00">name :character varying</text>
<text text-anchor="start" x="1810.83" y="-942.3" font-family="Times,serif" font-size="14.00">ws_model_id :integer</text>
<text text-anchor="start" x="1810.83" y="-928.3" font-family="Times,serif" font-size="14.00">ws_model_status_id :integer</text>
<text text-anchor="start" x="1810.83" y="-914.3" font-family="Times,serif" font-size="14.00">trace :text</text>
<text text-anchor="start" x="1810.83" y="-900.3" font-family="Times,serif" font-size="14.00">created_at :timestamp without time zone</text>
<text text-anchor="start" x="1810.83" y="-886.3" font-family="Times,serif" font-size="14.00">updated_at :timestamp without time zone</text>
<text text-anchor="start" x="1810.83" y="-872.3" font-family="Times,serif" font-size="14.00">user_id :integer</text>
<text text-anchor="start" x="1810.83" y="-858.3" font-family="Times,serif" font-size="14.00">descr :character varying</text>
<text text-anchor="start" x="1810.83" y="-844.3" font-family="Times,serif" font-size="14.00">ws_set_model_run_id :integer</text>
<text text-anchor="start" x="1810.83" y="-830.3" font-family="Times,serif" font-size="14.00">target_ws_model_id :integer</text>
<text text-anchor="start" x="1810.83" y="-816.3" font-family="Times,serif" font-size="14.00">goal_ws_param_value_id :integer</text>
</g>
<!-- WsModelRunsSetModelRun -->
<g id="node13" class="node"><title>WsModelRunsSetModelRun</title>
<path fill="none" stroke="black" d="M1620.73,-380.5C1620.73,-380.5 1782.64,-380.5 1782.64,-380.5 1788.64,-380.5 1794.64,-386.5 1794.64,-392.5 1794.64,-392.5 1794.64,-454.5 1794.64,-454.5 1794.64,-460.5 1788.64,-466.5 1782.64,-466.5 1782.64,-466.5 1620.73,-466.5 1620.73,-466.5 1614.73,-466.5 1608.73,-460.5 1608.73,-454.5 1608.73,-454.5 1608.73,-392.5 1608.73,-392.5 1608.73,-386.5 1614.73,-380.5 1620.73,-380.5"/>
<text text-anchor="middle" x="1701.69" y="-451.3" font-family="Times,serif" font-size="14.00">WsModelRunsSetModelRun</text>
<polyline fill="none" stroke="black" points="1608.73,-444.5 1794.64,-444.5 "/>
<text text-anchor="start" x="1616.73" y="-429.3" font-family="Times,serif" font-size="14.00">ws_model_run_id :integer</text>
<text text-anchor="start" x="1616.73" y="-415.3" font-family="Times,serif" font-size="14.00">ws_set_model_run_id :integer</text>
<text text-anchor="start" x="1616.73" y="-401.3" font-family="Times,serif" font-size="14.00">ord :integer</text>
<text text-anchor="start" x="1616.73" y="-387.3" font-family="Times,serif" font-size="14.00">id :integer</text>
</g>
<!-- WsModelRun&#45;&gt;WsModelRunsSetModelRun -->
<g id="edge10" class="edge"><title>WsModelRun&#45;&gt;WsModelRunsSetModelRun</title>
<path fill="none" stroke="#570ed8" d="M1795.93,-833.453C1752.56,-801.559 1709.35,-759.994 1685.69,-710 1650.15,-634.923 1667.9,-536.025 1684.46,-476.515"/>
<ellipse fill="none" stroke="#570ed8" cx="1799.36" cy="-835.942" rx="4.00002" ry="4.00002"/>
<polygon fill="#570ed8" stroke="#570ed8" points="1684.55,-476.206 1691.64,-467.838 1685.93,-471.4 1687.32,-466.595 1687.32,-466.595 1687.32,-466.595 1685.93,-471.4 1682.99,-465.351 1684.55,-476.206 1684.55,-476.206"/>
</g>
<!-- WsParamValue -->
<g id="node17" class="node"><title>WsParamValue</title>
<path fill="none" stroke="black" d="M1858.83,-345.5C1858.83,-345.5 2082.55,-345.5 2082.55,-345.5 2088.55,-345.5 2094.55,-351.5 2094.55,-357.5 2094.55,-357.5 2094.55,-489.5 2094.55,-489.5 2094.55,-495.5 2088.55,-501.5 2082.55,-501.5 2082.55,-501.5 1858.83,-501.5 1858.83,-501.5 1852.83,-501.5 1846.83,-495.5 1846.83,-489.5 1846.83,-489.5 1846.83,-357.5 1846.83,-357.5 1846.83,-351.5 1852.83,-345.5 1858.83,-345.5"/>
<text text-anchor="middle" x="1970.69" y="-486.3" font-family="Times,serif" font-size="14.00">WsParamValue</text>
<polyline fill="none" stroke="black" points="1846.83,-479.5 2094.55,-479.5 "/>
<text text-anchor="start" x="1854.83" y="-464.3" font-family="Times,serif" font-size="14.00">id :integer</text>
<text text-anchor="start" x="1854.83" y="-450.3" font-family="Times,serif" font-size="14.00">ws_param_id :integer</text>
<text text-anchor="start" x="1854.83" y="-436.3" font-family="Times,serif" font-size="14.00">ws_model_run_id :integer</text>
<text text-anchor="start" x="1854.83" y="-422.3" font-family="Times,serif" font-size="14.00">old_value :character varying</text>
<text text-anchor="start" x="1854.83" y="-408.3" font-family="Times,serif" font-size="14.00">new_value :character varying</text>
<text text-anchor="start" x="1854.83" y="-394.3" font-family="Times,serif" font-size="14.00">created_at :timestamp without time zone</text>
<text text-anchor="start" x="1854.83" y="-380.3" font-family="Times,serif" font-size="14.00">updated_at :timestamp without time zone</text>
<text text-anchor="start" x="1854.83" y="-366.3" font-family="Times,serif" font-size="14.00">ws_set_model_run_id :integer</text>
<text text-anchor="start" x="1854.83" y="-352.3" font-family="Times,serif" font-size="14.00">formula :character varying</text>
</g>
<!-- WsModelRun&#45;&gt;WsParamValue -->
<g id="edge12" class="edge"><title>WsModelRun&#45;&gt;WsParamValue</title>
<path fill="none" stroke="#115615" d="M1941.32,-801.185C1945.06,-771.694 1948.83,-739.638 1951.69,-710 1958.1,-643.53 1963.02,-568.144 1966.24,-511.534"/>
<ellipse fill="none" stroke="#115615" cx="1940.78" cy="-805.463" rx="4.00001" ry="4.00001"/>
<polygon fill="#115615" stroke="#115615" points="1966.24,-511.531 1971.3,-501.8 1966.52,-506.539 1966.8,-501.547 1966.8,-501.547 1966.8,-501.547 1966.52,-506.539 1962.31,-501.294 1966.24,-511.531 1966.24,-511.531"/>
</g>
<!-- WsSetModelRun -->
<g id="node19" class="node"><title>WsSetModelRun</title>
<path fill="none" stroke="black" d="M1706.83,-574.5C1706.83,-574.5 1930.55,-574.5 1930.55,-574.5 1936.55,-574.5 1942.55,-580.5 1942.55,-586.5 1942.55,-586.5 1942.55,-662.5 1942.55,-662.5 1942.55,-668.5 1936.55,-674.5 1930.55,-674.5 1930.55,-674.5 1706.83,-674.5 1706.83,-674.5 1700.83,-674.5 1694.83,-668.5 1694.83,-662.5 1694.83,-662.5 1694.83,-586.5 1694.83,-586.5 1694.83,-580.5 1700.83,-574.5 1706.83,-574.5"/>
<text text-anchor="middle" x="1818.69" y="-659.3" font-family="Times,serif" font-size="14.00">WsSetModelRun</text>
<polyline fill="none" stroke="black" points="1694.83,-652.5 1942.55,-652.5 "/>
<text text-anchor="start" x="1702.83" y="-637.3" font-family="Times,serif" font-size="14.00">id :integer</text>
<text text-anchor="start" x="1702.83" y="-623.3" font-family="Times,serif" font-size="14.00">name :character varying</text>
<text text-anchor="start" x="1702.83" y="-609.3" font-family="Times,serif" font-size="14.00">descr :character varying</text>
<text text-anchor="start" x="1702.83" y="-595.3" font-family="Times,serif" font-size="14.00">created_at :timestamp without time zone</text>
<text text-anchor="start" x="1702.83" y="-581.3" font-family="Times,serif" font-size="14.00">updated_at :timestamp without time zone</text>
</g>
<!-- WsModelRun&#45;&gt;WsSetModelRun -->
<g id="edge11" class="edge"><title>WsModelRun&#45;&gt;WsSetModelRun</title>
<path fill="none" stroke="#2a9972" d="M1885.46,-799.858C1870.44,-760.635 1854.02,-717.759 1841.22,-684.34"/>
<polygon fill="#2a9972" stroke="#2a9972" points="1885.49,-799.927 1884.86,-810.875 1887.28,-804.597 1889.07,-809.266 1889.07,-809.266 1889.07,-809.266 1887.28,-804.597 1893.27,-807.657 1885.49,-799.927 1885.49,-799.927"/>
<polygon fill="#2a9972" stroke="#2a9972" points="1841.12,-684.071 1841.75,-673.123 1839.33,-679.402 1837.54,-674.733 1837.54,-674.733 1837.54,-674.733 1839.33,-679.402 1833.34,-676.342 1841.12,-684.071 1841.12,-684.071"/>
</g>
<!-- WsModelStatus -->
<g id="node14" class="node"><title>WsModelStatus</title>
<path fill="none" stroke="black" d="M2080.83,-865.5C2080.83,-865.5 2304.55,-865.5 2304.55,-865.5 2310.55,-865.5 2316.55,-871.5 2316.55,-877.5 2316.55,-877.5 2316.55,-939.5 2316.55,-939.5 2316.55,-945.5 2310.55,-951.5 2304.55,-951.5 2304.55,-951.5 2080.83,-951.5 2080.83,-951.5 2074.83,-951.5 2068.83,-945.5 2068.83,-939.5 2068.83,-939.5 2068.83,-877.5 2068.83,-877.5 2068.83,-871.5 2074.83,-865.5 2080.83,-865.5"/>
<text text-anchor="middle" x="2192.69" y="-936.3" font-family="Times,serif" font-size="14.00">WsModelStatus</text>
<polyline fill="none" stroke="black" points="2068.83,-929.5 2316.55,-929.5 "/>
<text text-anchor="start" x="2076.83" y="-914.3" font-family="Times,serif" font-size="14.00">id :integer</text>
<text text-anchor="start" x="2076.83" y="-900.3" font-family="Times,serif" font-size="14.00">name :character varying</text>
<text text-anchor="start" x="2076.83" y="-886.3" font-family="Times,serif" font-size="14.00">created_at :timestamp without time zone</text>
<text text-anchor="start" x="2076.83" y="-872.3" font-family="Times,serif" font-size="14.00">updated_at :timestamp without time zone</text>
</g>
<!-- WsParam -->
<g id="node15" class="node"><title>WsParam</title>
<path fill="none" stroke="black" d="M1857.83,-124.5C1857.83,-124.5 2081.55,-124.5 2081.55,-124.5 2087.55,-124.5 2093.55,-130.5 2093.55,-136.5 2093.55,-136.5 2093.55,-282.5 2093.55,-282.5 2093.55,-288.5 2087.55,-294.5 2081.55,-294.5 2081.55,-294.5 1857.83,-294.5 1857.83,-294.5 1851.83,-294.5 1845.83,-288.5 1845.83,-282.5 1845.83,-282.5 1845.83,-136.5 1845.83,-136.5 1845.83,-130.5 1851.83,-124.5 1857.83,-124.5"/>
<text text-anchor="middle" x="1969.69" y="-279.3" font-family="Times,serif" font-size="14.00">WsParam</text>
<polyline fill="none" stroke="black" points="1845.83,-272.5 2093.55,-272.5 "/>
<text text-anchor="start" x="1853.83" y="-257.3" font-family="Times,serif" font-size="14.00">id :integer</text>
<text text-anchor="start" x="1853.83" y="-243.3" font-family="Times,serif" font-size="14.00">name :character varying</text>
<text text-anchor="start" x="1853.83" y="-229.3" font-family="Times,serif" font-size="14.00">descr :character varying</text>
<text text-anchor="start" x="1853.83" y="-215.3" font-family="Times,serif" font-size="14.00">is_int :boolean</text>
<text text-anchor="start" x="1853.83" y="-201.3" font-family="Times,serif" font-size="14.00">dim :integer</text>
<text text-anchor="start" x="1853.83" y="-187.3" font-family="Times,serif" font-size="14.00">min_val :numeric</text>
<text text-anchor="start" x="1853.83" y="-173.3" font-family="Times,serif" font-size="14.00">max_val :numeric</text>
<text text-anchor="start" x="1853.83" y="-159.3" font-family="Times,serif" font-size="14.00">created_at :timestamp without time zone</text>
<text text-anchor="start" x="1853.83" y="-145.3" font-family="Times,serif" font-size="14.00">updated_at :timestamp without time zone</text>
<text text-anchor="start" x="1853.83" y="-131.3" font-family="Times,serif" font-size="14.00">user_id :integer</text>
</g>
<!-- WsParam&#45;&gt;WsParamValue -->
<g id="edge13" class="edge"><title>WsParam&#45;&gt;WsParamValue</title>
<path fill="none" stroke="#5ec467" d="M1967.55,-302.946C1967.52,-311.081 1967.57,-319.188 1967.69,-327 1967.73,-329.706 1967.78,-332.454 1967.83,-335.229"/>
<ellipse fill="none" stroke="#5ec467" cx="1967.57" cy="-298.812" rx="4" ry="4"/>
<polygon fill="#5ec467" stroke="#5ec467" points="1967.84,-335.366 1963.56,-345.462 1967.95,-340.365 1968.06,-345.364 1968.06,-345.364 1968.06,-345.364 1967.95,-340.365 1972.56,-345.265 1967.84,-335.366 1967.84,-335.366"/>
</g>
<!-- WsParam&#45;&gt;WsParamValue -->
<g id="edge15" class="edge"><title>WsParam&#45;&gt;WsParamValue</title>
<path fill="none" stroke="#db60c7" d="M1970.13,-304.8C1970.18,-314.923 1970.23,-325.19 1970.28,-335.226"/>
<polygon fill="#db60c7" stroke="#db60c7" points="1970.13,-304.739 1974.59,-294.718 1970.11,-299.739 1970.09,-294.739 1970.09,-294.739 1970.09,-294.739 1970.11,-299.739 1965.59,-294.76 1970.13,-304.739 1970.13,-304.739"/>
<polygon fill="#db60c7" stroke="#db60c7" points="1970.28,-335.364 1965.82,-345.385 1970.3,-340.363 1970.32,-345.363 1970.32,-345.363 1970.32,-345.363 1970.3,-340.363 1974.82,-345.342 1970.28,-335.364 1970.28,-335.364"/>
<text text-anchor="middle" x="2039.15" y="-315.8" font-family="Times,serif" font-size="14.00">target_ws_param_values</text>
</g>
<!-- WsParamValuesParam -->
<g id="node18" class="node"><title>WsParamValuesParam</title>
<path fill="none" stroke="black" d="M2012.19,-0.5C2012.19,-0.5 2163.19,-0.5 2163.19,-0.5 2169.19,-0.5 2175.19,-6.5 2175.19,-12.5 2175.19,-12.5 2175.19,-74.5 2175.19,-74.5 2175.19,-80.5 2169.19,-86.5 2163.19,-86.5 2163.19,-86.5 2012.19,-86.5 2012.19,-86.5 2006.19,-86.5 2000.19,-80.5 2000.19,-74.5 2000.19,-74.5 2000.19,-12.5 2000.19,-12.5 2000.19,-6.5 2006.19,-0.5 2012.19,-0.5"/>
<text text-anchor="middle" x="2087.69" y="-71.3" font-family="Times,serif" font-size="14.00">WsParamValuesParam</text>
<polyline fill="none" stroke="black" points="2000.19,-64.5 2175.19,-64.5 "/>
<text text-anchor="start" x="2008.19" y="-49.3" font-family="Times,serif" font-size="14.00">ws_param_id :integer</text>
<text text-anchor="start" x="2008.19" y="-35.3" font-family="Times,serif" font-size="14.00">ws_param_value_id :integer</text>
<text text-anchor="start" x="2008.19" y="-21.3" font-family="Times,serif" font-size="14.00">ord :integer</text>
<text text-anchor="start" x="2008.19" y="-7.3" font-family="Times,serif" font-size="14.00">id :integer</text>
</g>
<!-- WsParam&#45;&gt;WsParamValuesParam -->
<g id="edge14" class="edge"><title>WsParam&#45;&gt;WsParamValuesParam</title>
<path fill="none" stroke="#15b335" d="M2035.24,-117.394C2040.79,-109.679 2046.26,-102.073 2051.46,-94.8535"/>
<ellipse fill="none" stroke="#15b335" cx="2032.75" cy="-120.851" rx="4.00002" ry="4.00002"/>
<polygon fill="#15b335" stroke="#15b335" points="2051.58,-94.6899 2061.07,-89.2009 2054.5,-90.6313 2057.42,-86.5727 2057.42,-86.5727 2057.42,-86.5727 2054.5,-90.6313 2053.76,-83.9444 2051.58,-94.6899 2051.58,-94.6899"/>
</g>
<!-- WsParamValue&#45;&gt;WsModelRun -->
<g id="edge17" class="edge"><title>WsParamValue&#45;&gt;WsModelRun</title>
<path fill="none" stroke="#c47574" d="M1979.7,-509.875C1979.76,-513.632 1979.76,-517.353 1979.69,-521 1977.91,-605.056 1982.85,-626.669 1971.69,-710 1967.77,-739.231 1961.59,-770.505 1955.05,-799.346"/>
<ellipse fill="none" stroke="#c47574" cx="1979.57" cy="-505.606" rx="4" ry="4"/>
<polygon fill="#c47574" stroke="#c47574" points="1954.97,-799.694 1948.34,-808.429 1953.85,-804.567 1952.73,-809.439 1952.73,-809.439 1952.73,-809.439 1953.85,-804.567 1957.11,-810.449 1954.97,-799.694 1954.97,-799.694"/>
<text text-anchor="middle" x="2043.63" y="-620.3" font-family="Times,serif" font-size="14.00">solver_ws_model_runs</text>
</g>
<!-- WsParamValue&#45;&gt;WsParam -->
<g id="edge18" class="edge"><title>WsParamValue&#45;&gt;WsParam</title>
<path fill="none" stroke="#825d03" d="M1861.52,-337.034C1859.56,-333.771 1857.77,-330.425 1856.16,-327 1852.62,-319.439 1851.42,-312.071 1852.05,-304.951"/>
<polygon fill="#825d03" stroke="#825d03" points="1861.57,-337.119 1863.3,-347.949 1864.32,-341.299 1867.06,-345.48 1867.06,-345.48 1867.06,-345.48 1864.32,-341.299 1870.82,-343.011 1861.57,-337.119 1861.57,-337.119"/>
<polygon fill="#825d03" stroke="#825d03" points="1852.15,-304.486 1858.63,-295.644 1853.19,-299.596 1854.23,-294.706 1854.23,-294.706 1854.23,-294.706 1853.19,-299.596 1849.83,-293.767 1852.15,-304.486 1852.15,-304.486"/>
<text text-anchor="middle" x="1908.95" y="-315.8" font-family="Times,serif" font-size="14.00">source_ws_params</text>
</g>
<!-- WsParamValue&#45;&gt;WsParamValuesParam -->
<g id="edge16" class="edge"><title>WsParamValue&#45;&gt;WsParamValuesParam</title>
<path fill="none" stroke="#511448" d="M2100.17,-345.802C2104.92,-339.908 2109.15,-333.644 2112.69,-327 2151.49,-254.136 2128.74,-155.537 2108.42,-96.1675"/>
<ellipse fill="none" stroke="#511448" cx="2097.43" cy="-349.014" rx="4.00002" ry="4.00002"/>
<polygon fill="#511448" stroke="#511448" points="2108.39,-96.0602 2109.31,-85.1332 2106.73,-91.3442 2105.06,-86.6282 2105.06,-86.6282 2105.06,-86.6282 2106.73,-91.3442 2100.82,-88.1233 2108.39,-96.0602 2108.39,-96.0602"/>
</g>
<!-- WsSetModelRun&#45;&gt;WsModelRunsSetModelRun -->
<g id="edge19" class="edge"><title>WsSetModelRun&#45;&gt;WsModelRunsSetModelRun</title>
<path fill="none" stroke="#2226f2" d="M1785.59,-567.2C1768.65,-538.394 1748.19,-503.594 1731.71,-475.571"/>
<ellipse fill="none" stroke="#2226f2" cx="1787.74" cy="-570.861" rx="4.00002" ry="4.00002"/>
<polygon fill="#2226f2" stroke="#2226f2" points="1731.58,-475.348 1730.39,-464.447 1729.05,-471.038 1726.51,-466.728 1726.51,-466.728 1726.51,-466.728 1729.05,-471.038 1722.64,-469.008 1731.58,-475.348 1731.58,-475.348"/>
</g>
<!-- WsSetModelRun&#45;&gt;WsParamValue -->
<g id="edge20" class="edge"><title>WsSetModelRun&#45;&gt;WsParamValue</title>
<path fill="none" stroke="#cf9147" d="M1861.25,-567.782C1874.98,-549.805 1890.53,-529.446 1905.51,-509.836"/>
<ellipse fill="none" stroke="#cf9147" cx="1858.69" cy="-571.13" rx="4.00002" ry="4.00002"/>
<polygon fill="#cf9147" stroke="#cf9147" points="1905.59,-509.728 1915.23,-504.513 1908.62,-505.755 1911.66,-501.781 1911.66,-501.781 1911.66,-501.781 1908.62,-505.755 1908.08,-499.05 1905.59,-509.728 1905.59,-509.728"/>
</g>
</g>
</svg>
