<?xml version="1.0" encoding="UTF-8" standalone="no"?>
<!DOCTYPE svg PUBLIC "-//W3C//DTD SVG 1.1//EN"
 "http://www.w3.org/Graphics/SVG/1.1/DTD/svg11.dtd">
<!-- Generated by graphviz version 2.38.0 (20140413.2041)
 -->
<!-- Title: models_diagram Pages: 1 -->
<svg width="1432pt" height="399pt"
 viewBox="0.00 0.00 1432.34 399.00" xmlns="http://www.w3.org/2000/svg" xmlns:xlink="http://www.w3.org/1999/xlink">
<g id="graph0" class="graph" transform="scale(1 1) rotate(0) translate(4 395)">
<title>models_diagram</title>
<polygon fill="none" stroke="none" points="-4,4 -4,-395 1428.34,-395 1428.34,4 -4,4"/>
<!-- _diagram_info -->
<g id="node1" class="node"><title>_diagram_info</title>
<text text-anchor="start" x="8" y="-376.6" font-family="Times,serif" font-size="13.00">Models diagram</text>
<text text-anchor="start" x="8" y="-363.6" font-family="Times,serif" font-size="13.00">Date: Jun 03 2016 &#45; 14:54</text>
<text text-anchor="start" x="8" y="-350.6" font-family="Times,serif" font-size="13.00">Migration version: 20160513092136</text>
<text text-anchor="start" x="8" y="-337.6" font-family="Times,serif" font-size="13.00">Generated by RailRoady 1.4.1</text>
<text text-anchor="start" x="8" y="-324.6" font-family="Times,serif" font-size="13.00">http://railroady.prestonlee.com</text>
</g>
<!-- Ability -->
<g id="node2" class="node"><title>Ability</title>
<polygon fill="none" stroke="black" points="281.358,-372.5 226.018,-372.5 226.018,-336.5 281.358,-336.5 281.358,-372.5"/>
<text text-anchor="middle" x="253.688" y="-350.3" font-family="Times,serif" font-size="14.00">Ability</text>
</g>
<!-- Description -->
<g id="node3" class="node"><title>Description</title>
<ellipse fill="none" stroke="black" cx="234.688" cy="-250" rx="51.2329" ry="18"/>
<text text-anchor="middle" x="234.688" y="-245.8" font-family="Times,serif" font-size="14.00">Description</text>
</g>
<!-- Document -->
<g id="node4" class="node"><title>Document</title>
<ellipse fill="none" stroke="black" cx="828.688" cy="-354.5" rx="46.8891" ry="18"/>
<text text-anchor="middle" x="828.688" y="-350.3" font-family="Times,serif" font-size="14.00">Document</text>
</g>
<!-- Subject -->
<g id="node7" class="node"><title>Subject</title>
<ellipse fill="none" stroke="black" cx="828.688" cy="-250" rx="36.7663" ry="18"/>
<text text-anchor="middle" x="828.688" y="-245.8" font-family="Times,serif" font-size="14.00">Subject</text>
</g>
<!-- Document&#45;&gt;Subject -->
<g id="edge1" class="edge"><title>Document&#45;&gt;Subject</title>
<path fill="none" stroke="#1072dc" d="M828.688,-325.974C828.688,-311.155 828.688,-292.94 828.688,-278.175"/>
<polygon fill="#1072dc" stroke="#1072dc" points="828.688,-326.112 824.188,-336.112 828.688,-331.112 828.688,-336.112 828.688,-336.112 828.688,-336.112 828.688,-331.112 833.188,-336.112 828.688,-326.112 828.688,-326.112"/>
<polygon fill="#1072dc" stroke="#1072dc" points="828.688,-278.131 833.188,-268.131 828.688,-273.131 828.688,-268.131 828.688,-268.131 828.688,-268.131 828.688,-273.131 824.188,-268.131 828.688,-278.131 828.688,-278.131"/>
</g>
<!-- Student -->
<g id="node5" class="node"><title>Student</title>
<ellipse fill="none" stroke="black" cx="953.688" cy="-250" rx="37.2594" ry="18"/>
<text text-anchor="middle" x="953.688" y="-245.8" font-family="Times,serif" font-size="14.00">Student</text>
</g>
<!-- StudentGroup -->
<g id="node6" class="node"><title>StudentGroup</title>
<ellipse fill="none" stroke="black" cx="953.688" cy="-354.5" rx="59.953" ry="18"/>
<text text-anchor="middle" x="953.688" y="-350.3" font-family="Times,serif" font-size="14.00">StudentGroup</text>
</g>
<!-- StudentGroup&#45;&gt;Student -->
<g id="edge2" class="edge"><title>StudentGroup&#45;&gt;Student</title>
<path fill="none" stroke="#6a3eeb" d="M953.688,-328.017C953.688,-312.986 953.688,-293.959 953.688,-278.577"/>
<ellipse fill="none" stroke="#6a3eeb" cx="953.688" cy="-332.112" rx="4" ry="4"/>
<polygon fill="#6a3eeb" stroke="#6a3eeb" points="953.688,-278.131 958.188,-268.131 953.688,-273.131 953.688,-268.131 953.688,-268.131 953.688,-268.131 953.688,-273.131 949.188,-268.131 953.688,-278.131 953.688,-278.131"/>
</g>
<!-- User -->
<g id="node8" class="node"><title>User</title>
<ellipse fill="none" stroke="black" cx="572.688" cy="-354.5" rx="27" ry="18"/>
<text text-anchor="middle" x="572.688" y="-350.3" font-family="Times,serif" font-size="14.00">User</text>
</g>
<!-- WsJob -->
<g id="node9" class="node"><title>WsJob</title>
<ellipse fill="none" stroke="black" cx="445.688" cy="-250" rx="34.3614" ry="18"/>
<text text-anchor="middle" x="445.688" y="-245.8" font-family="Times,serif" font-size="14.00">WsJob</text>
</g>
<!-- User&#45;&gt;WsJob -->
<g id="edge3" class="edge"><title>User&#45;&gt;WsJob</title>
<path fill="none" stroke="#820cca" d="M549.811,-335.036C527.764,-317.243 494.458,-290.362 471.48,-271.817"/>
<ellipse fill="none" stroke="#820cca" cx="552.972" cy="-337.588" rx="4.00002" ry="4.00002"/>
<polygon fill="#820cca" stroke="#820cca" points="471.304,-271.674 466.348,-261.892 467.413,-268.534 463.522,-265.394 463.522,-265.394 463.522,-265.394 467.413,-268.534 460.696,-268.896 471.304,-271.674 471.304,-271.674"/>
</g>
<!-- Royce::Connector -->
<g id="node20" class="node"><title>Royce::Connector</title>
<ellipse fill="none" stroke="black" cx="572.688" cy="-250" rx="74.4016" ry="18"/>
<text text-anchor="middle" x="572.688" y="-245.8" font-family="Times,serif" font-size="14.00">Royce::Connector</text>
</g>
<!-- User&#45;&gt;Royce::Connector -->
<g id="edge4" class="edge"><title>User&#45;&gt;Royce::Connector</title>
<path fill="none" stroke="#c524e4" d="M572.688,-328.017C572.688,-312.986 572.688,-293.959 572.688,-278.577"/>
<ellipse fill="none" stroke="#c524e4" cx="572.688" cy="-332.112" rx="4" ry="4"/>
<polygon fill="#c524e4" stroke="#c524e4" points="572.688,-278.131 577.188,-268.131 572.688,-273.131 572.688,-268.131 572.688,-268.131 572.688,-268.131 572.688,-273.131 568.188,-268.131 572.688,-278.131 572.688,-278.131"/>
<text text-anchor="middle" x="617.391" y="-288.8" font-family="Times,serif" font-size="14.00">role_connectors</text>
</g>
<!-- Royce::Role -->
<g id="node21" class="node"><title>Royce::Role</title>
<ellipse fill="none" stroke="black" cx="719.688" cy="-250" rx="54.1317" ry="18"/>
<text text-anchor="middle" x="719.688" y="-245.8" font-family="Times,serif" font-size="14.00">Royce::Role</text>
</g>
<!-- User&#45;&gt;Royce::Role -->
<g id="edge5" class="edge"><title>User&#45;&gt;Royce::Role</title>
<path fill="none" stroke="#7885e7" d="M602.766,-338.327C621.49,-328.371 645.723,-314.54 665.688,-300 676.241,-292.314 687.054,-282.869 696.206,-274.33"/>
<polygon fill="#7885e7" stroke="#7885e7" points="602.653,-338.386 591.707,-339.039 598.224,-340.705 593.795,-343.025 593.795,-343.025 593.795,-343.025 598.224,-340.705 595.883,-347.012 602.653,-338.386 602.653,-338.386"/>
<polygon fill="#7885e7" stroke="#7885e7" points="696.216,-274.321 706.562,-270.688 699.838,-270.874 703.46,-267.428 703.46,-267.428 703.46,-267.428 699.838,-270.874 700.359,-264.167 696.216,-274.321 696.216,-274.321"/>
<text text-anchor="middle" x="696.295" y="-288.8" font-family="Times,serif" font-size="14.00">roles</text>
</g>
<!-- WsMethod -->
<g id="node10" class="node"><title>WsMethod</title>
<ellipse fill="none" stroke="black" cx="348.688" cy="-354.5" rx="49.3119" ry="18"/>
<text text-anchor="middle" x="348.688" y="-350.3" font-family="Times,serif" font-size="14.00">WsMethod</text>
</g>
<!-- WsMethod&#45;&gt;Description -->
<g id="edge6" class="edge"><title>WsMethod&#45;&gt;Description</title>
<path fill="none" stroke="#c78221" d="M324.777,-332.001C305.774,-314.915 279.264,-291.08 259.923,-273.69"/>
<ellipse fill="none" stroke="#c78221" cx="327.901" cy="-334.81" rx="4.00002" ry="4.00002"/>
<polygon fill="#c78221" stroke="#c78221" points="259.811,-273.589 255.384,-263.557 256.093,-270.246 252.375,-266.903 252.375,-266.903 252.375,-266.903 256.093,-270.246 249.366,-270.249 259.811,-273.589 259.811,-273.589"/>
</g>
<!-- WsMethod&#45;&gt;WsJob -->
<g id="edge7" class="edge"><title>WsMethod&#45;&gt;WsJob</title>
<path fill="none" stroke="#8b1fe8" d="M369.99,-330.99C386.057,-314.012 408.008,-290.816 424.136,-273.774"/>
<ellipse fill="none" stroke="#8b1fe8" cx="367.022" cy="-334.126" rx="4.00002" ry="4.00002"/>
<polygon fill="#8b1fe8" stroke="#8b1fe8" points="424.22,-273.685 434.362,-269.515 427.657,-270.053 431.094,-266.422 431.094,-266.422 431.094,-266.422 427.657,-270.053 427.825,-263.328 424.22,-273.685 424.22,-273.685"/>
</g>
<!-- WsModel -->
<g id="node11" class="node"><title>WsModel</title>
<ellipse fill="none" stroke="black" cx="348.688" cy="-250" rx="44.9682" ry="18"/>
<text text-anchor="middle" x="348.688" y="-245.8" font-family="Times,serif" font-size="14.00">WsModel</text>
</g>
<!-- WsMethod&#45;&gt;WsModel -->
<g id="edge8" class="edge"><title>WsMethod&#45;&gt;WsModel</title>
<path fill="none" stroke="#573d4b" d="M348.688,-328.017C348.688,-312.986 348.688,-293.959 348.688,-278.577"/>
<ellipse fill="none" stroke="#573d4b" cx="348.688" cy="-332.112" rx="4" ry="4"/>
<polygon fill="#573d4b" stroke="#573d4b" points="348.688,-278.131 353.188,-268.131 348.688,-273.131 348.688,-268.131 348.688,-268.131 348.688,-268.131 348.688,-273.131 344.188,-268.131 348.688,-278.131 348.688,-278.131"/>
</g>
<!-- WsParamModel -->
<g id="node16" class="node"><title>WsParamModel</title>
<ellipse fill="none" stroke="black" cx="348.688" cy="-177" rx="67.6529" ry="18"/>
<text text-anchor="middle" x="348.688" y="-172.8" font-family="Times,serif" font-size="14.00">WsParamModel</text>
</g>
<!-- WsModel&#45;&gt;WsParamModel -->
<g id="edge9" class="edge"><title>WsModel&#45;&gt;WsParamModel</title>
<path fill="none" stroke="#e816b5" d="M348.688,-223.791C348.688,-217.832 348.688,-211.45 348.688,-205.399"/>
<ellipse fill="none" stroke="#e816b5" cx="348.688" cy="-227.813" rx="4" ry="4"/>
<polygon fill="#e816b5" stroke="#e816b5" points="348.688,-205.029 353.188,-195.029 348.688,-200.029 348.688,-195.029 348.688,-195.029 348.688,-195.029 348.688,-200.029 344.188,-195.029 348.688,-205.029 348.688,-205.029"/>
</g>
<!-- WsModelRun -->
<g id="node12" class="node"><title>WsModelRun</title>
<ellipse fill="none" stroke="black" cx="1191.69" cy="-354.5" rx="59.953" ry="18"/>
<text text-anchor="middle" x="1191.69" y="-350.3" font-family="Times,serif" font-size="14.00">WsModelRun</text>
</g>
<!-- WsModelRunsSetModelRun -->
<g id="node13" class="node"><title>WsModelRunsSetModelRun</title>
<ellipse fill="none" stroke="black" cx="1020.69" cy="-177" rx="112.098" ry="18"/>
<text text-anchor="middle" x="1020.69" y="-172.8" font-family="Times,serif" font-size="14.00">WsModelRunsSetModelRun</text>
</g>
<!-- WsModelRun&#45;&gt;WsModelRunsSetModelRun -->
<g id="edge10" class="edge"><title>WsModelRun&#45;&gt;WsModelRunsSetModelRun</title>
<path fill="none" stroke="#5c70ae" d="M1142.23,-338.619C1107.57,-325.592 1063.07,-303.152 1037.69,-268 1024.63,-249.918 1020.78,-224.635 1019.96,-205.469"/>
<ellipse fill="none" stroke="#5c70ae" cx="1146.15" cy="-340.047" rx="4.00001" ry="4.00001"/>
<polygon fill="#5c70ae" stroke="#5c70ae" points="1019.96,-205.262 1024.29,-195.185 1019.87,-200.263 1019.79,-195.263 1019.79,-195.263 1019.79,-195.263 1019.87,-200.263 1015.29,-195.342 1019.96,-205.262 1019.96,-205.262"/>
</g>
<!-- WsParamValue -->
<g id="node17" class="node"><title>WsParamValue</title>
<ellipse fill="none" stroke="black" cx="1216.69" cy="-177" rx="64.7459" ry="18"/>
<text text-anchor="middle" x="1216.69" y="-172.8" font-family="Times,serif" font-size="14.00">WsParamValue</text>
</g>
<!-- WsModelRun&#45;&gt;WsParamValue -->
<g id="edge12" class="edge"><title>WsModelRun&#45;&gt;WsParamValue</title>
<path fill="none" stroke="#b832e1" d="M1195.28,-328.247C1199.94,-295.578 1208.01,-238.883 1212.8,-205.262"/>
<ellipse fill="none" stroke="#b832e1" cx="1194.69" cy="-332.393" rx="4.00001" ry="4.00001"/>
<polygon fill="#b832e1" stroke="#b832e1" points="1212.82,-205.117 1218.69,-195.851 1213.53,-200.167 1214.24,-195.217 1214.24,-195.217 1214.24,-195.217 1213.53,-200.167 1209.78,-194.582 1212.82,-205.117 1212.82,-205.117"/>
</g>
<!-- WsSetModelRun -->
<g id="node19" class="node"><title>WsSetModelRun</title>
<ellipse fill="none" stroke="black" cx="1117.69" cy="-250" rx="71.0531" ry="18"/>
<text text-anchor="middle" x="1117.69" y="-245.8" font-family="Times,serif" font-size="14.00">WsSetModelRun</text>
</g>
<!-- WsModelRun&#45;&gt;WsSetModelRun -->
<g id="edge11" class="edge"><title>WsModelRun&#45;&gt;WsSetModelRun</title>
<path fill="none" stroke="#b3d6f2" d="M1173.6,-328.446C1162.15,-312.588 1147.4,-292.154 1135.92,-276.258"/>
<polygon fill="#b3d6f2" stroke="#b3d6f2" points="1173.61,-328.466 1175.82,-339.208 1176.54,-332.52 1179.47,-336.574 1179.47,-336.574 1179.47,-336.574 1176.54,-332.52 1183.12,-333.94 1173.61,-328.466 1173.61,-328.466"/>
<polygon fill="#b3d6f2" stroke="#b3d6f2" points="1135.78,-276.059 1133.57,-265.317 1132.85,-272.005 1129.93,-267.951 1129.93,-267.951 1129.93,-267.951 1132.85,-272.005 1126.28,-270.585 1135.78,-276.059 1135.78,-276.059"/>
</g>
<!-- WsModelStatus -->
<g id="node14" class="node"><title>WsModelStatus</title>
<ellipse fill="none" stroke="black" cx="1335.69" cy="-354.5" rx="66.7098" ry="18"/>
<text text-anchor="middle" x="1335.69" y="-350.3" font-family="Times,serif" font-size="14.00">WsModelStatus</text>
</g>
<!-- WsParam -->
<g id="node15" class="node"><title>WsParam</title>
<ellipse fill="none" stroke="black" cx="1215.69" cy="-91" rx="44.475" ry="18"/>
<text text-anchor="middle" x="1215.69" y="-86.8" font-family="Times,serif" font-size="14.00">WsParam</text>
</g>
<!-- WsParam&#45;&gt;WsParamValue -->
<g id="edge13" class="edge"><title>WsParam&#45;&gt;WsParamValue</title>
<path fill="none" stroke="#4d0ec1" d="M1213.83,-117.654C1213.51,-125.177 1213.36,-133.419 1213.69,-141 1213.8,-143.559 1213.95,-146.221 1214.13,-148.882"/>
<ellipse fill="none" stroke="#4d0ec1" cx="1214.07" cy="-113.229" rx="4" ry="4"/>
<polygon fill="#4d0ec1" stroke="#4d0ec1" points="1214.14,-148.96 1210.44,-159.285 1214.53,-153.945 1214.93,-158.929 1214.93,-158.929 1214.93,-158.929 1214.53,-153.945 1219.42,-158.573 1214.14,-148.96 1214.14,-148.96"/>
</g>
<!-- WsParam&#45;&gt;WsParamValue -->
<g id="edge15" class="edge"><title>WsParam&#45;&gt;WsParamValue</title>
<path fill="none" stroke="#08eb2e" d="M1216.01,-119.364C1216.12,-128.648 1216.25,-139.023 1216.36,-148.33"/>
<polygon fill="#08eb2e" stroke="#08eb2e" points="1216.01,-119.094 1220.39,-109.042 1215.95,-114.095 1215.89,-109.095 1215.89,-109.095 1215.89,-109.095 1215.95,-114.095 1211.39,-109.149 1216.01,-119.094 1216.01,-119.094"/>
<polygon fill="#08eb2e" stroke="#08eb2e" points="1216.36,-148.596 1211.98,-158.649 1216.42,-153.595 1216.48,-158.595 1216.48,-158.595 1216.48,-158.595 1216.42,-153.595 1220.98,-158.542 1216.36,-148.596 1216.36,-148.596"/>
<text text-anchor="middle" x="1285.15" y="-129.8" font-family="Times,serif" font-size="14.00">target_ws_param_values</text>
</g>
<!-- WsParamValuesParam -->
<g id="node18" class="node"><title>WsParamValuesParam</title>
<ellipse fill="none" stroke="black" cx="1333.69" cy="-18" rx="90.8135" ry="18"/>
<text text-anchor="middle" x="1333.69" y="-13.8" font-family="Times,serif" font-size="14.00">WsParamValuesParam</text>
</g>
<!-- WsParam&#45;&gt;WsParamValuesParam -->
<g id="edge14" class="edge"><title>WsParam&#45;&gt;WsParamValuesParam</title>
<path fill="none" stroke="#a473b9" d="M1246.69,-71.3467C1262.37,-61.9107 1281.49,-50.4075 1297.81,-40.5902"/>
<ellipse fill="none" stroke="#a473b9" cx="1242.99" cy="-73.5698" rx="4.00002" ry="4.00002"/>
<polygon fill="#a473b9" stroke="#a473b9" points="1297.97,-40.4891 1308.86,-39.1892 1302.26,-37.9112 1306.54,-35.3334 1306.54,-35.3334 1306.54,-35.3334 1302.26,-37.9112 1304.22,-31.4776 1297.97,-40.4891 1297.97,-40.4891"/>
</g>
<!-- WsParamValue&#45;&gt;WsModelRun -->
<g id="edge17" class="edge"><title>WsParamValue&#45;&gt;WsModelRun</title>
<path fill="none" stroke="#e89dbf" d="M1223.99,-202.899C1224.56,-206.594 1224.86,-210.376 1224.69,-214 1222.91,-252.493 1224.62,-263.051 1213.69,-300 1211.02,-308.998 1207.37,-318.555 1203.81,-327.064"/>
<ellipse fill="none" stroke="#e89dbf" cx="1223.19" cy="-198.97" rx="4.00001" ry="4.00001"/>
<polygon fill="#e89dbf" stroke="#e89dbf" points="1203.71,-327.299 1195.61,-334.687 1201.72,-331.887 1199.74,-336.475 1199.74,-336.475 1199.74,-336.475 1201.72,-331.887 1203.87,-338.263 1203.71,-327.299 1203.71,-327.299"/>
<text text-anchor="middle" x="1288.63" y="-245.8" font-family="Times,serif" font-size="14.00">solver_ws_model_runs</text>
</g>
<!-- WsParamValue&#45;&gt;WsParam -->
<g id="edge18" class="edge"><title>WsParamValue&#45;&gt;WsParam</title>
<path fill="none" stroke="#a6b9d5" d="M1159.96,-161.855C1133.09,-154.587 1106,-146.191 1102.16,-141 1083.17,-115.339 1124.55,-102.956 1162.58,-97.0842"/>
<polygon fill="#a6b9d5" stroke="#a6b9d5" points="1160.14,-161.902 1168.64,-168.822 1164.97,-163.188 1169.8,-164.473 1169.8,-164.473 1169.8,-164.473 1164.97,-163.188 1170.96,-160.124 1160.14,-161.902 1160.14,-161.902"/>
<polygon fill="#a6b9d5" stroke="#a6b9d5" points="1162.74,-97.0609 1173.27,-100.117 1167.69,-96.361 1172.64,-95.6611 1172.64,-95.6611 1172.64,-95.6611 1167.69,-96.361 1172.01,-91.2054 1162.74,-97.0609 1162.74,-97.0609"/>
<text text-anchor="middle" x="1154.95" y="-129.8" font-family="Times,serif" font-size="14.00">source_ws_params</text>
</g>
<!-- WsParamValue&#45;&gt;WsParamValuesParam -->
<g id="edge16" class="edge"><title>WsParamValue&#45;&gt;WsParamValuesParam</title>
<path fill="none" stroke="#d8ed07" d="M1282.92,-167.625C1315.11,-162.054 1348.94,-153.437 1358.69,-141 1380.4,-113.292 1364.38,-71.4841 1349.85,-44.7168"/>
<ellipse fill="none" stroke="#d8ed07" cx="1278.73" cy="-168.321" rx="4.00001" ry="4.00001"/>
<polygon fill="#d8ed07" stroke="#d8ed07" points="1349.79,-44.61 1348.74,-33.6941 1347.31,-40.2669 1344.83,-35.9239 1344.83,-35.9239 1344.83,-35.9239 1347.31,-40.2669 1340.92,-38.1536 1349.79,-44.61 1349.79,-44.61"/>
</g>
<!-- WsSetModelRun&#45;&gt;WsModelRunsSetModelRun -->
<g id="edge19" class="edge"><title>WsSetModelRun&#45;&gt;WsModelRunsSetModelRun</title>
<path fill="none" stroke="#365a40" d="M1088.4,-227.566C1076.89,-219.135 1063.64,-209.441 1051.94,-200.875"/>
<ellipse fill="none" stroke="#365a40" cx="1091.96" cy="-230.17" rx="4.00002" ry="4.00002"/>
<polygon fill="#365a40" stroke="#365a40" points="1051.81,-200.777 1046.39,-191.24 1047.77,-197.824 1043.74,-194.871 1043.74,-194.871 1043.74,-194.871 1047.77,-197.824 1041.08,-198.502 1051.81,-200.777 1051.81,-200.777"/>
</g>
<!-- WsSetModelRun&#45;&gt;WsParamValue -->
<g id="edge20" class="edge"><title>WsSetModelRun&#45;&gt;WsParamValue</title>
<path fill="none" stroke="#844269" d="M1146.88,-228.067C1159.2,-219.231 1173.55,-208.939 1186.02,-199.992"/>
<ellipse fill="none" stroke="#844269" cx="1143.4" cy="-230.558" rx="4.00002" ry="4.00002"/>
<polygon fill="#844269" stroke="#844269" points="1186.19,-199.875 1196.93,-197.704 1190.25,-196.961 1194.31,-194.047 1194.31,-194.047 1194.31,-194.047 1190.25,-196.961 1191.69,-190.39 1186.19,-199.875 1186.19,-199.875"/>
</g>
</g>
</svg>
